<?xml version="1.0" encoding="UTF-8" standalone="no"?>
<svg
   xmlns:dc="http://purl.org/dc/elements/1.1/"
   xmlns:cc="http://creativecommons.org/ns#"
   xmlns:rdf="http://www.w3.org/1999/02/22-rdf-syntax-ns#"
   xmlns:svg="http://www.w3.org/2000/svg"
   xmlns="http://www.w3.org/2000/svg"
   id="svg35"
   xml:space="preserve"
   viewBox="0 0 1024 768"
   y="0px"
   x="0px"
   version="1.1"><metadata
     id="metadata39"><rdf:RDF><cc:Work
         rdf:about=""><dc:format>image/svg+xml</dc:format><dc:type
           rdf:resource="http://purl.org/dc/dcmitype/StillImage" /></cc:Work></rdf:RDF></metadata><style
     id="style2">
#c1 {
	transform: scale(0);
	opacity: 0;
	transform-origin: 50% 50%;
	animation: pulse 4s cubic-bezier(.5,.5,0,1) infinite;	
}

#c2 {
	transform: scale(0);
	opacity: 0;
	transform-origin: 50% 50%;
	animation: pulse 4s 0.75s cubic-bezier(.5,.5,0,1) infinite;
}

#c3 {
	transform: scale(0);
	opacity: 0;
	transform-origin: 50% 50%;
	animation: pulse 4s 1.5s cubic-bezier(.5,.5,0,1) infinite;
}

@keyframes pulse {
	
	12% {
		opacity: 0.3;
	}
	
	50% {
		transform: scale(1);
	}
	
	100% {
		transform: scale(1);
	}
	
}
</style><defs
     id="defs6"><clipPath
       id="clip-path"><rect
         y="0"
         x="0"
         height="100"
         width="1024"
         id="clip" /></clipPath></defs><circle
     fill="none"
     stroke-width="10"
     stroke="#2b2b2b"
     r="370"
     cy="384"
     cx="512"
     id="c1" /><circle
     fill="none"
     stroke-width="10"
     stroke="#555555"
     r="370"
     cy="384"
     cx="512"
     id="c2" /><circle
     fill="none"
     stroke-width="10"
     stroke="#808080"
     r="370"
     cy="384"
     cx="512"
     id="c3" /><g
     id="fade"><g
       style="stroke-width:0;stroke-miterlimit:2"
       stroke-miterlimit="2"
       id="logo-group"><path
         d="m 330.77,415.48 h 3.5712 v 20.314 H 330.77 Z m 1.7664,-8.1024 q 0.96,0 1.5744,0.6528 0.6528,0.6528 0.6528,1.6512 0,0.9984 -0.6528,1.6512 -0.6144,0.6528 -1.5744,0.6528 -0.96,0 -1.6128,-0.6528 -0.6144,-0.6528 -0.6144,-1.6512 0,-0.9984 0.6144,-1.6512 0.6528,-0.6528 1.6128,-0.6528 z"
         style="font-variant-ligatures:none"
         id="path372968" /><path
         d="m 358.56,415.37 q 3.5712,0 5.6064,2.112 2.0352,2.0736 2.0352,5.76 v 12.557 h -3.5712 v -11.6 q 0,-2.5728 -1.4592,-3.9936 -1.4208,-1.4592 -3.9552,-1.4592 -2.7264,0.0384 -4.4544,1.7664 -1.6896,1.6896 -1.92,4.416 v 10.867 h -3.5712 v -20.314 h 3.5712 v 4.3008 q 2.0352,-4.3392 7.7184,-4.416 z"
         style="font-variant-ligatures:none"
         id="path372970" /><path
         d="m 397.48,407.3 v 28.493 h -3.5712 v -4.032 q -1.152,2.0352 -3.1104,3.1488 -1.92,1.0752 -4.4928,1.0752 -2.88,0 -5.1072,-1.3056 -2.1888,-1.344 -3.4176,-3.6864 -1.2288,-2.3808 -1.2288,-5.4144 0,-2.9952 1.2288,-5.2992 1.2288,-2.3424 3.4176,-3.648 2.2272,-1.3056 5.0688,-1.3056 2.6112,0 4.5696,1.0752 1.9584,1.0752 3.072,3.1104 v -12.21 z m -10.445,25.613 q 1.9968,0 3.5328,-0.9216 1.5744,-0.9216 2.4576,-2.5728 0.8832,-1.6512 0.8832,-3.7248 0,-2.112 -0.8832,-3.7632 -0.8832,-1.6512 -2.4576,-2.5728 -1.536,-0.9216 -3.5328,-0.9216 -1.9968,0 -3.5712,0.96 -1.536,0.9216 -2.4192,2.5728 -0.8832,1.6512 -0.8832,3.7248 0,2.0736 0.8832,3.7248 0.8832,1.6512 2.4192,2.5728 1.5744,0.9216 3.5712,0.9216 z"
         style="font-variant-ligatures:none"
         id="path372972" /><path
         d="m 419.1,415.37 q 3.0336,0 5.376,1.3056 2.3808,1.3056 3.6864,3.648 1.344,2.304 1.344,5.2992 0,2.9952 -1.344,5.3376 -1.3056,2.3424 -3.6864,3.648 -2.3424,1.3056 -5.376,1.3056 -3.072,0 -5.4528,-1.3056 -2.3424,-1.3056 -3.6864,-3.6096 -1.3056,-2.3424 -1.3056,-5.376 0,-2.9952 1.3056,-5.2992 1.344,-2.3424 3.6864,-3.648 2.3808,-1.3056 5.4528,-1.3056 z m 0,3.1104 q -1.9968,0 -3.5712,0.9216 -1.536,0.9216 -2.4192,2.5728 -0.8448,1.6128 -0.8448,3.6864 0,2.112 0.8448,3.7632 0.8832,1.6512 2.4192,2.5728 1.5744,0.8832 3.5712,0.8832 1.9584,0 3.4944,-0.8832 1.5744,-0.9216 2.4192,-2.5728 0.8832,-1.6512 0.8832,-3.7632 0,-2.0736 -0.8832,-3.6864 -0.8448,-1.6512 -2.4192,-2.5728 -1.536,-0.9216 -3.4944,-0.9216 z"
         style="font-variant-ligatures:none"
         id="path372974" /><path
         d="m 448.95,415.37 q 3.0336,0 5.376,1.3056 2.3808,1.3056 3.6864,3.648 1.344,2.304 1.344,5.2992 0,2.9952 -1.344,5.3376 -1.3056,2.3424 -3.6864,3.648 -2.3424,1.3056 -5.376,1.3056 -3.072,0 -5.4528,-1.3056 -2.3424,-1.3056 -3.6864,-3.6096 -1.3056,-2.3424 -1.3056,-5.376 0,-2.9952 1.3056,-5.2992 1.344,-2.3424 3.6864,-3.648 2.3808,-1.3056 5.4528,-1.3056 z m 0,3.1104 q -1.9968,0 -3.5712,0.9216 -1.536,0.9216 -2.4192,2.5728 -0.8448,1.6128 -0.8448,3.6864 0,2.112 0.8448,3.7632 0.8832,1.6512 2.4192,2.5728 1.5744,0.8832 3.5712,0.8832 1.9584,0 3.4944,-0.8832 1.5744,-0.9216 2.4192,-2.5728 0.8832,-1.6512 0.8832,-3.7632 0,-2.0736 -0.8832,-3.6864 -0.8448,-1.6512 -2.4192,-2.5728 -1.536,-0.9216 -3.4944,-0.9216 z"
         style="font-variant-ligatures:none"
         id="path372976" /><path
         d="m 473.92,419.86 q 0.9984,-2.1888 2.8416,-3.3024 1.8432,-1.152 4.3776,-1.1904 v 3.456 q -3.1104,-0.1152 -5.0304,1.6128 -1.92,1.728 -2.1888,4.6464 v 10.714 h -3.5712 v -20.314 h 3.5712 z"
         style="font-variant-ligatures:none"
         id="path372978" /><path
         d="m 499.03,404.35 h 3.1104 l -12.096,36.058 h -3.072 z"
         style="font-variant-ligatures:none"
         id="path372980" /><path
         d="m 517.87,415.37 q 3.0336,0 5.376,1.3056 2.3808,1.3056 3.6864,3.648 1.344,2.304 1.344,5.2992 0,2.9952 -1.344,5.3376 -1.3056,2.3424 -3.6864,3.648 -2.3424,1.3056 -5.376,1.3056 -3.072,0 -5.4528,-1.3056 -2.3424,-1.3056 -3.6864,-3.6096 -1.3056,-2.3424 -1.3056,-5.376 0,-2.9952 1.3056,-5.2992 1.344,-2.3424 3.6864,-3.648 2.3808,-1.3056 5.4528,-1.3056 z m 0,3.1104 q -1.9968,0 -3.5712,0.9216 -1.536,0.9216 -2.4192,2.5728 -0.8448,1.6128 -0.8448,3.6864 0,2.112 0.8448,3.7632 0.8832,1.6512 2.4192,2.5728 1.5744,0.8832 3.5712,0.8832 1.9584,0 3.4944,-0.8832 1.5744,-0.9216 2.4192,-2.5728 0.8832,-1.6512 0.8832,-3.7632 0,-2.0736 -0.8832,-3.6864 -0.8448,-1.6512 -2.4192,-2.5728 -1.536,-0.9216 -3.4944,-0.9216 z"
         style="font-variant-ligatures:none"
         id="path372982" /><path
         d="m 557.24,415.48 v 20.314 h -3.6096 v -4.3008 q -1.9968,4.3392 -7.5264,4.416 -3.5328,0 -5.5296,-2.0736 -1.9968,-2.112 -1.9968,-5.7984 v -12.557 h 3.6096 v 11.61 q 0,2.5728 1.3824,4.032 1.4208,1.4208 3.8784,1.4208 2.8416,-0.0384 4.4928,-1.9968 1.6896,-1.9968 1.6896,-5.0688 v -9.984 z"
         style="font-variant-ligatures:none"
         id="path372984" /><path
         d="m 581.08,434.45 q -2.3424,1.4976 -4.7616,1.4976 -2.4192,0 -3.9168,-1.4208 -1.4976,-1.4592 -1.4976,-4.3776 v -11.251 h -2.88 v -2.7264 h 2.88 v -5.4528 h 3.6096 v 5.4528 h 6.2208 v 2.7264 h -6.2208 v 10.598 q 0,1.6896 0.6144,2.4192 0.6144,0.7296 1.8432,0.7296 1.4592,0 3.1488,-0.96 z"
         style="font-variant-ligatures:none"
         id="path372986" /><path
         d="m 610.03,407.3 v 28.493 h -3.5712 v -4.032 q -1.152,2.0352 -3.1104,3.1488 -1.92,1.0752 -4.4928,1.0752 -2.88,0 -5.1072,-1.3056 -2.1888,-1.344 -3.4176,-3.6864 -1.2288,-2.3808 -1.2288,-5.4144 0,-2.9952 1.2288,-5.2992 1.2288,-2.3424 3.4176,-3.648 2.2272,-1.3056 5.0688,-1.3056 2.6112,0 4.5696,1.0752 1.9584,1.0752 3.072,3.1104 v -12.21 z m -10.445,25.613 q 1.9968,0 3.5328,-0.9216 1.5744,-0.9216 2.4576,-2.5728 0.8832,-1.6512 0.8832,-3.7248 0,-2.112 -0.8832,-3.7632 -0.8832,-1.6512 -2.4576,-2.5728 -1.536,-0.9216 -3.5328,-0.9216 -1.9968,0 -3.5712,0.96 -1.536,0.9216 -2.4192,2.5728 -0.8832,1.6512 -0.8832,3.7248 0,2.0736 0.8832,3.7248 0.8832,1.6512 2.4192,2.5728 1.5744,0.9216 3.5712,0.9216 z"
         style="font-variant-ligatures:none"
         id="path372988" /><path
         d="m 631.65,415.37 q 3.0336,0 5.376,1.3056 2.3808,1.3056 3.6864,3.648 1.344,2.304 1.344,5.2992 0,2.9952 -1.344,5.3376 -1.3056,2.3424 -3.6864,3.648 -2.3424,1.3056 -5.376,1.3056 -3.072,0 -5.4528,-1.3056 -2.3424,-1.3056 -3.6864,-3.6096 -1.3056,-2.3424 -1.3056,-5.376 0,-2.9952 1.3056,-5.2992 1.344,-2.3424 3.6864,-3.648 2.3808,-1.3056 5.4528,-1.3056 z m 0,3.1104 q -1.9968,0 -3.5712,0.9216 -1.536,0.9216 -2.4192,2.5728 -0.8448,1.6128 -0.8448,3.6864 0,2.112 0.8448,3.7632 0.8832,1.6512 2.4192,2.5728 1.5744,0.8832 3.5712,0.8832 1.9584,0 3.4944,-0.8832 1.5744,-0.9216 2.4192,-2.5728 0.8832,-1.6512 0.8832,-3.7632 0,-2.0736 -0.8832,-3.6864 -0.8448,-1.6512 -2.4192,-2.5728 -1.536,-0.9216 -3.4944,-0.9216 z"
         style="font-variant-ligatures:none"
         id="path372990" /><path
         d="m 661.5,415.37 q 3.0336,0 5.376,1.3056 2.3808,1.3056 3.6864,3.648 1.344,2.304 1.344,5.2992 0,2.9952 -1.344,5.3376 -1.3056,2.3424 -3.6864,3.648 -2.3424,1.3056 -5.376,1.3056 -3.072,0 -5.4528,-1.3056 -2.3424,-1.3056 -3.6864,-3.6096 -1.3056,-2.3424 -1.3056,-5.376 0,-2.9952 1.3056,-5.2992 1.344,-2.3424 3.6864,-3.648 2.3808,-1.3056 5.4528,-1.3056 z m 0,3.1104 q -1.9968,0 -3.5712,0.9216 -1.536,0.9216 -2.4192,2.5728 -0.8448,1.6128 -0.8448,3.6864 0,2.112 0.8448,3.7632 0.8832,1.6512 2.4192,2.5728 1.5744,0.8832 3.5712,0.8832 1.9584,0 3.4944,-0.8832 1.5744,-0.9216 2.4192,-2.5728 0.8832,-1.6512 0.8832,-3.7632 0,-2.0736 -0.8832,-3.6864 -0.8448,-1.6512 -2.4192,-2.5728 -1.536,-0.9216 -3.4944,-0.9216 z"
         style="font-variant-ligatures:none"
         id="path372992" /><path
         d="m 686.47,419.86 q 0.9984,-2.1888 2.8416,-3.3024 1.8432,-1.152 4.3776,-1.1904 v 3.456 q -3.1104,-0.1152 -5.0304,1.6128 -1.92,1.728 -2.1888,4.6464 v 10.714 h -3.5712 v -20.314 h 3.5712 z"
         style="font-variant-ligatures:none"
         id="path372994" /><path
         d="m 229.84,384.55 h 20.99 l -32.21,-28.8 31.48,-28.15 h -21.07 l -20.91,18.71 -20.91,-18.71 h -21.072 l 31.486,28.151 -32.219,28.801 h 21.072 l 21.642,-19.364 z"
         style="font-variant-ligatures:normal"
         id="path372997" /><path
         d="m 283.22,341.43 h 30.429 v -13.831 h -30.347 c -20.177,0 -29.046,0 -29.046,17.492 v 21.967 c 0,17.492 8.8682,17.492 29.046,17.492 h 30.347 V 370.72 H 283.22 c -10.577,0 -11.634,0.0814 -11.634,-10.089 v -9.1123 c 0,-10.17 1.0577,-10.089 11.634,-10.089 z"
         style="font-variant-ligatures:normal"
         id="path372999" /><path
         d="m 360.26,327.6 c -21.398,0 -38.727,0 -38.727,20.747 v 15.458 c 0,20.747 17.33,20.747 38.727,20.747 21.398,0 38.727,0 38.727,-20.747 v -15.47 c 0,-20.747 -17.33,-20.747 -38.727,-20.747 z m -21.398,32.056 v -7.1597 c 0,-11.96 9.5191,-11.065 21.398,-11.065 11.065,0 20.259,-0.73224 21.398,8.7869 v 11.716 c -1.139,9.5191 -10.333,8.7869 -21.398,8.7869 -11.879,0 -21.398,0.89496 -21.398,-11.065 z"
         style="font-variant-ligatures:normal"
         id="path373001" /><path
         d="m 494.39,327.6 c -10.251,0 -19.445,0.16272 -25.791,3.2544 -6.2647,-3.0917 -15.458,-3.2544 -25.71,-3.2544 -19.038,0 -34.415,0.4068 -34.415,19.445 v 37.507 h 17.33 v -32.788 c 0,-9.4378 7.6478,-10.333 17.086,-10.333 9.4378,0 17.086,0.89496 17.086,10.333 v 32.788 h 17.33 v -32.788 c 0,-9.4378 7.6478,-10.333 17.086,-10.333 9.4378,0 17.086,0.89496 17.086,10.333 v 32.788 h 17.33 v -37.507 c 0,-19.038 -15.377,-19.445 -34.415,-19.445 z"
         style="font-variant-ligatures:normal"
         id="path373003" /><path
         d="m 593.2,327.6 h -53.535 v 13.831 h 47.026 c 4.3121,0 4.7189,3.4171 4.7189,7.7292 0,4.3121 -0.4068,7.7292 -4.7189,7.7292 h -47.026 v 27.662 h 17.33 v -13.83 H 593.2 c 11.96,0 14.889,-9.6818 14.889,-21.56 0,-11.879 -2.929,-21.56 -14.889,-21.56 z"
         style="font-variant-ligatures:normal"
         id="path373005" /><path
         d="m 672.32,384.55 h 19.282 l -30.998,-56.952 h -21.967 l -30.998,56.952 h 19.201 l 22.781,-41.819 z"
         style="font-variant-ligatures:normal"
         id="path373007" /><path
         d="m 736.01,327.6 c -21.398,0 -38.727,0 -38.727,20.747 v 36.205 h 17.33 v -32.056 c 0,-11.96 9.5191,-11.065 21.398,-11.065 11.8789,0 21.56,-0.8136 21.56,11.065 l -0.16272,13.831 v 18.225 h 17.33 v -36.22 c 0,-20.747 -17.33,-20.747 -38.727,-20.747 z"
         style="font-variant-ligatures:normal"
         id="path373009" /><path
         d="m 827.11,355.75 31.48,-28.15 h -21.072 l -20.91,18.713 -20.91,-18.713 h -21.072 l 31.486,28.151 1.8713,1.6272 v 27.17 h 17.25 v -27.174 z"
         style="font-variant-ligatures:normal"
         id="path373011" /></g></g></svg>