<svg width="340" height="55" viewBox="0 0 340 55" fill="none" xmlns="http://www.w3.org/2000/svg">
<path d="M82.9227 42.6236H84.6134V52.4186H82.9227V42.6236ZM83.759 38.7168C84.062 38.7168 84.3105 38.8217 84.5044 39.0316C84.7104 39.2414 84.8134 39.5068 84.8134 39.8277C84.8134 40.1487 84.7104 40.4141 84.5044 40.6239C84.3105 40.8338 84.062 40.9387 83.759 40.9387C83.456 40.9387 83.2015 40.8338 82.9955 40.6239C82.8016 40.4141 82.7046 40.1487 82.7046 39.8277C82.7046 39.5068 82.8016 39.2414 82.9955 39.0316C83.2015 38.8217 83.456 38.7168 83.759 38.7168Z" fill="white"/>
<path d="M96.0794 42.5701C97.2065 42.5701 98.0912 42.9096 98.7336 43.5885C99.3759 44.255 99.6971 45.1808 99.6971 46.3658V52.4206H98.0064V46.8273C98.0064 46.0002 97.7761 45.3584 97.3156 44.9016C96.8671 44.4326 96.243 44.198 95.4431 44.198C94.5826 44.2104 93.8796 44.4943 93.3342 45.0498C92.801 45.5929 92.498 46.3027 92.4253 47.1791V52.4189H90.7346V42.6239H92.4253V44.6977C93.0676 43.3028 94.2856 42.593 96.0794 42.5684V42.5701Z" fill="white"/>
<path d="M114.505 38.6797V52.4185H112.814V50.4743C112.451 51.1285 111.96 51.6346 111.342 51.9926C110.736 52.3382 110.027 52.511 109.215 52.511C108.306 52.511 107.5 52.3012 106.797 51.8815C106.106 51.4495 105.567 50.857 105.179 50.104C104.791 49.3387 104.597 48.4685 104.597 47.4933C104.597 46.5305 104.791 45.6787 105.179 44.9381C105.567 44.1851 106.106 43.5988 106.797 43.1791C107.5 42.7594 108.3 42.5496 109.197 42.5496C110.021 42.5496 110.742 42.7224 111.36 43.068C111.978 43.4136 112.463 43.9136 112.814 44.5678V38.6804L114.505 38.6797ZM109.56 51.0298C110.19 51.0298 110.748 50.8817 111.233 50.5854C111.73 50.2892 112.117 49.8756 112.396 49.3449C112.675 48.8141 112.814 48.2154 112.814 47.5488C112.814 46.8699 112.675 46.2651 112.396 45.7343C112.117 45.2035 111.73 44.79 111.233 44.4937C110.748 44.1975 110.19 44.0494 109.56 44.0494C108.93 44.0494 108.366 44.2037 107.869 44.5123C107.385 44.8085 107.003 45.222 106.724 45.7528C106.445 46.2836 106.306 46.8823 106.306 47.5488C106.306 48.2154 106.445 48.8141 106.724 49.3449C107.003 49.8756 107.385 50.2892 107.869 50.5854C108.366 50.8817 108.93 51.0298 109.56 51.0298Z" fill="white"/>
<path d="M124.741 42.5703C125.698 42.5703 126.546 42.7802 127.286 43.1998C128.037 43.6195 128.619 44.2059 129.031 44.9588C129.455 45.6995 129.667 46.5512 129.667 47.514C129.667 48.4768 129.455 49.3347 129.031 50.0877C128.619 50.8407 128.037 51.427 127.286 51.8467C126.546 52.2664 125.698 52.4762 124.741 52.4762C123.771 52.4762 122.91 52.2664 122.159 51.8467C121.42 51.427 120.838 50.8469 120.414 50.1062C120.002 49.3533 119.796 48.4892 119.796 47.514C119.796 46.5512 120.002 45.6995 120.414 44.9588C120.838 44.2059 121.42 43.6195 122.159 43.1998C122.91 42.7802 123.771 42.5703 124.741 42.5703ZM124.741 44.0701C124.11 44.0701 123.547 44.2182 123.05 44.5145C122.565 44.8107 122.183 45.2242 121.905 45.755C121.638 46.2735 121.505 46.866 121.505 47.5325C121.505 48.2114 121.638 48.8163 121.905 49.3471C122.183 49.8779 122.565 50.2914 123.05 50.5876C123.547 50.8715 124.11 51.0135 124.741 51.0135C125.359 51.0135 125.91 50.8715 126.395 50.5876C126.892 50.2914 127.274 49.8779 127.54 49.3471C127.819 48.8163 127.958 48.2114 127.958 47.5325C127.958 46.866 127.819 46.2735 127.54 45.755C127.274 45.2242 126.892 44.8107 126.395 44.5145C125.91 44.2182 125.359 44.0701 124.741 44.0701Z" fill="white"/>
<path d="M138.872 42.5703C139.83 42.5703 140.678 42.7802 141.417 43.1998C142.169 43.6195 142.751 44.2059 143.163 44.9588C143.587 45.6995 143.799 46.5512 143.799 47.514C143.799 48.4768 143.587 49.3347 143.163 50.0877C142.751 50.8407 142.169 51.427 141.417 51.8467C140.678 52.2664 139.83 52.4762 138.872 52.4762C137.903 52.4762 137.042 52.2664 136.291 51.8467C135.551 51.427 134.97 50.8469 134.545 50.1062C134.133 49.3533 133.927 48.4892 133.927 47.514C133.927 46.5512 134.133 45.6995 134.545 44.9588C134.97 44.2059 135.551 43.6195 136.291 43.1998C137.042 42.7802 137.903 42.5703 138.872 42.5703ZM138.872 44.0701C138.242 44.0701 137.678 44.2182 137.182 44.5145C136.697 44.8107 136.315 45.2242 136.036 45.755C135.77 46.2735 135.636 46.866 135.636 47.5325C135.636 48.2114 135.77 48.8163 136.036 49.3471C136.315 49.8779 136.697 50.2914 137.182 50.5876C137.678 50.8715 138.242 51.0135 138.872 51.0135C139.49 51.0135 140.042 50.8715 140.527 50.5876C141.023 50.2914 141.405 49.8779 141.672 49.3471C141.951 48.8163 142.09 48.2114 142.09 47.5325C142.09 46.866 141.951 46.2735 141.672 45.755C141.405 45.2242 141.023 44.8107 140.527 44.5145C140.042 44.2182 139.49 44.0701 138.872 44.0701Z" fill="white"/>
<path d="M150.694 44.7347C151.009 44.0311 151.457 43.5003 152.039 43.1423C152.621 42.772 153.311 42.5807 154.111 42.5684V44.2348C153.13 44.1978 152.336 44.457 151.73 45.0124C151.124 45.5679 150.778 46.3147 150.694 47.2528V52.4189H149.003V42.6239H150.694V44.7347Z" fill="white"/>
<path d="M162.582 37.2559H164.054L158.328 54.6423H156.873L162.582 37.2559Z" fill="white"/>
<path d="M171.501 42.5703C172.458 42.5703 173.307 42.7802 174.046 43.1998C174.797 43.6195 175.379 44.2059 175.791 44.9588C176.215 45.6995 176.428 46.5512 176.428 47.514C176.428 48.4768 176.215 49.3347 175.791 50.0877C175.379 50.8407 174.797 51.427 174.046 51.8467C173.307 52.2664 172.458 52.4762 171.501 52.4762C170.531 52.4762 169.671 52.2664 168.919 51.8467C168.18 51.427 167.598 50.8469 167.174 50.1062C166.762 49.3533 166.556 48.4892 166.556 47.514C166.556 46.5512 166.762 45.6995 167.174 44.9588C167.598 44.2059 168.18 43.6195 168.919 43.1998C169.671 42.7802 170.531 42.5703 171.501 42.5703ZM171.501 44.0701C170.871 44.0701 170.307 44.2182 169.81 44.5145C169.325 44.8107 168.944 45.2242 168.665 45.755C168.398 46.2735 168.265 46.866 168.265 47.5325C168.265 48.2114 168.398 48.8163 168.665 49.3471C168.944 49.8779 169.325 50.2914 169.81 50.5876C170.307 50.8715 170.871 51.0135 171.501 51.0135C172.119 51.0135 172.67 50.8715 173.155 50.5876C173.652 50.2914 174.034 49.8779 174.301 49.3471C174.579 48.8163 174.719 48.2114 174.719 47.5325C174.719 46.866 174.579 46.2735 174.301 45.755C174.034 45.2242 173.652 44.8107 173.155 44.5145C172.67 44.2182 172.119 44.0701 171.501 44.0701Z" fill="white"/>
<path d="M190.14 42.623V52.4181H188.431V50.3443C187.801 51.7391 186.613 52.4489 184.868 52.4736C183.753 52.4736 182.88 52.1403 182.25 51.4738C181.62 50.7948 181.304 49.8629 181.304 48.6779V42.6231H183.013V48.2213C183.013 49.0483 183.231 49.6963 183.668 50.1654C184.116 50.6221 184.728 50.8505 185.504 50.8505C186.401 50.8381 187.11 50.5172 187.631 49.8877C188.164 49.2458 188.431 48.4311 188.431 47.4436V42.6295L190.14 42.623Z" fill="white"/>
<path d="M201.426 51.7708C200.687 52.2522 199.935 52.4929 199.172 52.4929C198.408 52.4929 197.79 52.2645 197.318 51.8078C196.845 51.3387 196.609 50.6351 196.609 49.697V44.272H195.245V42.9574H196.609V40.3281H198.317V42.9574H201.262V44.272H198.317V49.3821C198.317 49.9253 198.414 50.3141 198.608 50.5486C198.802 50.7832 199.093 50.9004 199.481 50.9004C199.941 50.9004 200.438 50.7461 200.972 50.4375L201.426 51.7708Z" fill="white"/>
<path d="M215.132 38.6797V52.4185H213.441V50.4743C213.077 51.1285 212.586 51.6346 211.968 51.9926C211.362 52.3382 210.653 52.511 209.841 52.511C208.932 52.511 208.126 52.3012 207.423 51.8815C206.733 51.4495 206.193 50.857 205.806 50.104C205.418 49.3387 205.224 48.4685 205.224 47.4933C205.224 46.5305 205.418 45.6787 205.806 44.9381C206.193 44.1851 206.733 43.5988 207.423 43.1791C208.126 42.7594 208.926 42.5496 209.823 42.5496C210.647 42.5496 211.368 42.7224 211.987 43.068C212.605 43.4136 213.089 43.9136 213.441 44.5678V38.6804L215.132 38.6797ZM210.187 51.0298C210.817 51.0298 211.374 50.8817 211.859 50.5854C212.356 50.2892 212.744 49.8756 213.023 49.3449C213.301 48.8141 213.441 48.2154 213.441 47.5488C213.441 46.8699 213.301 46.2651 213.023 45.7343C212.744 45.2035 212.356 44.79 211.859 44.4937C211.374 44.1975 210.817 44.0494 210.187 44.0494C209.556 44.0494 208.993 44.2037 208.496 44.5123C208.011 44.8085 207.629 45.222 207.351 45.7528C207.072 46.2836 206.933 46.8823 206.933 47.5488C206.933 48.2154 207.072 48.8141 207.351 49.3449C207.629 49.8756 208.011 50.2892 208.496 50.5854C208.993 50.8817 209.556 51.0298 210.187 51.0298Z" fill="white"/>
<path d="M225.367 42.5703C226.325 42.5703 227.173 42.7802 227.912 43.1998C228.664 43.6195 229.245 44.2059 229.657 44.9588C230.082 45.6995 230.294 46.5512 230.294 47.514C230.294 48.4768 230.082 49.3347 229.657 50.0877C229.245 50.8407 228.664 51.427 227.912 51.8467C227.173 52.2664 226.325 52.4762 225.367 52.4762C224.398 52.4762 223.537 52.2664 222.786 51.8467C222.046 51.427 221.465 50.8469 221.04 50.1062C220.628 49.3533 220.422 48.4892 220.422 47.514C220.422 46.5512 220.628 45.6995 221.04 44.9588C221.465 44.2059 222.046 43.6195 222.786 43.1998C223.537 42.7802 224.398 42.5703 225.367 42.5703ZM225.367 44.0701C224.737 44.0701 224.173 44.2182 223.676 44.5145C223.192 44.8107 222.81 45.2242 222.531 45.755C222.264 46.2735 222.131 46.866 222.131 47.5325C222.131 48.2114 222.264 48.8163 222.531 49.3471C222.81 49.8779 223.192 50.2914 223.676 50.5876C224.173 50.8715 224.737 51.0135 225.367 51.0135C225.985 51.0135 226.537 50.8715 227.021 50.5876C227.518 50.2914 227.9 49.8779 228.167 49.3471C228.445 48.8163 228.585 48.2114 228.585 47.5325C228.585 46.866 228.445 46.2735 228.167 45.755C227.9 45.2242 227.518 44.8107 227.021 44.5145C226.537 44.2182 225.985 44.0701 225.367 44.0701Z" fill="white"/>
<path d="M239.499 42.5703C240.456 42.5703 241.305 42.7802 242.044 43.1998C242.796 43.6195 243.377 44.2059 243.789 44.9588C244.214 45.6995 244.426 46.5512 244.426 47.514C244.426 48.4768 244.214 49.3347 243.789 50.0877C243.377 50.8407 242.796 51.427 242.044 51.8467C241.305 52.2664 240.456 52.4762 239.499 52.4762C238.529 52.4762 237.669 52.2664 236.917 51.8467C236.178 51.427 235.596 50.8469 235.172 50.1062C234.76 49.3533 234.554 48.4892 234.554 47.514C234.554 46.5512 234.76 45.6995 235.172 44.9588C235.596 44.2059 236.178 43.6195 236.917 43.1998C237.669 42.7802 238.529 42.5703 239.499 42.5703ZM239.499 44.0701C238.869 44.0701 238.305 44.2182 237.808 44.5145C237.323 44.8107 236.942 45.2242 236.663 45.755C236.396 46.2735 236.263 46.866 236.263 47.5325C236.263 48.2114 236.396 48.8163 236.663 49.3471C236.942 49.8779 237.323 50.2914 237.808 50.5876C238.305 50.8715 238.869 51.0135 239.499 51.0135C240.117 51.0135 240.669 50.8715 241.153 50.5876C241.65 50.2914 242.032 49.8779 242.299 49.3471C242.577 48.8163 242.717 48.2114 242.717 47.5325C242.717 46.866 242.577 46.2735 242.299 45.755C242.032 45.2242 241.65 44.8107 241.153 44.5145C240.669 44.2182 240.117 44.0701 239.499 44.0701Z" fill="white"/>
<path d="M251.32 44.7347C251.635 44.0311 252.084 43.5003 252.666 43.1423C253.247 42.772 253.938 42.5807 254.738 42.5684V44.2348C253.756 44.1978 252.963 44.457 252.357 45.0124C251.751 45.5679 251.405 46.3147 251.32 47.2528V52.4189H249.63V42.6239H251.32V44.7347Z" fill="white"/>
<path d="M31.3525 27.7082H41.2897L26.0407 13.8214L40.9441 0.248047H30.9691L21.0697 9.26965L11.1704 0.248047H1.19434L16.1006 13.8219L0.847321 27.7092H10.8234L21.0692 18.3722L31.3525 27.7082Z" fill="white"/>
<path d="M57.5709 6.91709H71.9767V0.248047H57.6097C48.0574 0.248047 43.8586 0.248049 43.8586 8.68236V19.2744C43.8586 27.7087 48.057 27.7087 57.6097 27.7087H71.9767V21.0402H57.5709C52.5634 21.0402 52.063 21.0794 52.063 16.1754V11.7817C52.063 6.87789 52.5638 6.91709 57.5709 6.91709Z" fill="white"/>
<path d="M95.4638 0.24797C85.3334 0.24797 77.1294 0.24796 77.1294 10.2518V17.7053C77.1294 27.7091 85.3339 27.7091 95.4638 27.7091C105.594 27.7091 113.798 27.7091 113.798 17.7053V10.246C113.798 0.242177 105.594 0.242188 95.4638 0.242188V0.24797ZM85.3334 15.7048V12.2525C85.3334 6.48561 89.84 6.91716 95.4638 6.91716C100.702 6.91716 105.055 6.56408 105.594 11.154V16.8033C105.055 21.3932 100.702 21.0401 95.4638 21.0401C89.84 21.0401 85.3334 21.4716 85.3334 15.7048Z" fill="white"/>
<path d="M160.385 0.248047C155.532 0.248047 151.179 0.326505 148.175 1.81725C145.209 0.326495 140.856 0.248047 136.003 0.248047C126.99 0.248047 119.71 0.444201 119.71 9.62406V27.7092H127.914V11.8995C127.914 7.34874 131.535 6.91709 136.003 6.91709C140.471 6.91709 144.092 7.34862 144.092 11.8995V27.7092H152.297V11.8995C152.297 7.34874 155.917 6.91709 160.386 6.91709C164.854 6.91709 168.475 7.34862 168.475 11.8995V27.7092H176.679V9.62406C176.679 0.444298 169.399 0.248047 160.386 0.248047H160.385Z" fill="white"/>
<path d="M209.058 0.248047H183.713V6.91709H205.976C208.018 6.91709 208.21 8.56474 208.21 10.644C208.21 12.7232 208.018 14.3708 205.976 14.3708H183.713V27.7089H191.917V21.0404H209.058C214.72 21.0404 216.106 16.372 216.106 10.6445C216.106 4.91671 214.72 0.248724 209.058 0.248724V0.248047Z" fill="white"/>
<path d="M247.462 27.7092H256.59L241.915 0.248047H231.515L216.84 27.7092H225.93L236.716 7.54489L247.462 27.7092Z" fill="white"/>
<path d="M279.508 0.249427C269.378 0.249427 261.174 0.249417 261.174 10.2532V27.7106H269.378V12.2538C269.378 6.48692 273.885 6.91847 279.509 6.91847C285.133 6.91847 289.716 6.52617 289.716 12.2538L289.639 18.9228V27.7106H297.843V10.246C297.843 0.242192 289.639 0.242188 279.509 0.242188L279.508 0.249427Z" fill="white"/>
<path d="M324.531 13.8214L339.434 0.248047H329.458L319.559 9.27109L309.66 0.248047H299.684L314.59 13.8219L315.476 14.6065V27.7074H323.643V14.6046L324.531 13.8214Z" fill="white"/>
</svg>
