<svg width="165" height="40" viewBox="0 0 165 40" fill="none" xmlns="http://www.w3.org/2000/svg">
<path d="M164.799 26.1791H151.268V23.9389H164.799V26.1791Z" fill="white"/>
<path d="M164.799 12.7882V15.0083H163.594C164.528 15.8019 165 16.8567 165 18.1827C165 19.1572 164.729 19.9809 164.197 20.654C163.654 21.327 162.911 21.6686 161.946 21.6686C160.892 21.6686 160.098 21.3069 159.556 20.5736C159.013 19.8403 158.742 18.8859 158.742 17.7005C158.742 16.7462 158.883 15.8421 159.154 14.9982H158.973C158.29 14.9982 157.778 15.2092 157.416 15.6211C157.055 16.0329 156.874 16.6357 156.874 17.4092C156.874 18.3033 157.075 19.2275 157.486 20.212L155.688 20.8247C155.146 19.6092 154.875 18.3736 154.875 17.0978C154.875 15.6813 155.236 14.6065 155.95 13.8832C156.663 13.1599 157.687 12.7982 159.003 12.7982H164.809L164.799 12.7882ZM161.263 14.9581H160.711C160.45 15.6211 160.319 16.3745 160.319 17.1982C160.319 17.9014 160.46 18.454 160.731 18.8457C161.002 19.2375 161.384 19.4384 161.876 19.4384C162.318 19.4384 162.67 19.2576 162.931 18.896C163.192 18.5343 163.323 18.0823 163.323 17.5398C163.323 16.7864 163.132 16.1635 162.75 15.6813C162.368 15.1891 161.876 14.948 161.263 14.948V14.9581Z" fill="white"/>
<path d="M165 4.56075C165 5.90688 164.427 7.01191 163.272 7.87584H164.789V10.116H151.258V7.87584H156.632C155.407 7.01191 154.794 5.90688 154.794 4.56075C154.794 3.32513 155.256 2.26029 156.18 1.35617C157.105 0.452057 158.35 0 159.917 0C161.484 0 162.7 0.452057 163.614 1.35617C164.538 2.26029 165 3.32513 165 4.56075ZM163.051 5.08313C163.051 4.28952 162.76 3.6265 162.177 3.09408C161.595 2.55161 160.831 2.29042 159.877 2.29042C158.923 2.29042 158.199 2.56166 157.617 3.10413C157.034 3.64659 156.743 4.30961 156.743 5.08313C156.743 5.85665 157.044 6.52971 157.637 7.09227C158.23 7.65483 158.993 7.93611 159.917 7.93611C160.841 7.93611 161.585 7.65483 162.167 7.09227C162.75 6.52971 163.051 5.85665 163.051 5.08313Z" fill="white"/>
<path d="M0 39.2486V33.0604H1.08487V33.854C1.50676 33.2613 2.03915 32.96 2.69207 32.96C3.29478 32.96 3.80708 33.181 4.24906 33.633C4.69104 34.075 4.90199 34.6878 4.90199 35.4413C4.90199 36.1947 4.68099 36.7874 4.24906 37.2394C3.81712 37.6815 3.29478 37.9125 2.69207 37.9125C2.03915 37.9125 1.50676 37.6312 1.08487 37.0787V39.2586H0V39.2486ZM2.44095 36.9682C2.82266 36.9682 3.1441 36.8276 3.40527 36.5463C3.66644 36.265 3.79703 35.8933 3.79703 35.4312C3.79703 34.9691 3.66644 34.6175 3.40527 34.3362C3.1441 34.055 2.82266 33.9143 2.44095 33.9143C2.05924 33.9143 1.73779 34.055 1.46658 34.3463C1.19536 34.6376 1.05473 34.9993 1.05473 35.4513C1.05473 35.9034 1.19536 36.255 1.46658 36.5463C1.73779 36.8276 2.06928 36.9783 2.44095 36.9783V36.9682Z" fill="white"/>
<path d="M10.909 37.802H9.8342V37.2194C9.45249 37.6714 8.94019 37.9025 8.29731 37.9025C7.82519 37.9025 7.42339 37.7719 7.10195 37.5107C6.78051 37.2495 6.60974 36.8879 6.60974 36.4157C6.60974 35.9034 6.79055 35.5216 7.14213 35.2605C7.49371 34.9993 7.95578 34.8687 8.53839 34.8687C9.00046 34.8687 9.44245 34.939 9.85429 35.0696V34.9792C9.85429 34.6477 9.75384 34.3965 9.55294 34.2257C9.35204 34.055 9.06073 33.9646 8.68907 33.9646C8.25713 33.9646 7.8051 34.065 7.33299 34.2659L7.04168 33.392C7.62429 33.1308 8.227 33.0002 8.84979 33.0002C9.5429 33.0002 10.0552 33.1709 10.4068 33.5225C10.7583 33.8741 10.9291 34.3664 10.9291 35.0093V37.8221L10.909 37.802ZM9.85429 36.0842V35.813C9.53285 35.6824 9.17123 35.6221 8.76943 35.6221C8.4279 35.6221 8.15668 35.6924 7.96582 35.823C7.77497 35.9536 7.67452 36.1445 7.67452 36.3755C7.67452 36.5865 7.76492 36.7573 7.93569 36.8879C8.10645 37.0185 8.32745 37.0787 8.58862 37.0787C8.95024 37.0787 9.25159 36.9883 9.49267 36.7975C9.73375 36.6166 9.84425 36.3755 9.84425 36.0742L9.85429 36.0842Z" fill="white"/>
<path d="M14.716 37.9125C13.9024 37.9125 13.2093 37.6714 12.6367 37.1892L13.149 36.4659C13.591 36.8477 14.0933 37.0285 14.6457 37.0285C14.8969 37.0285 15.1078 36.9682 15.2786 36.8477C15.4493 36.7271 15.5397 36.5664 15.5397 36.3755C15.5397 36.1947 15.4594 36.0541 15.2886 35.9436C15.1178 35.833 14.8868 35.7828 14.5754 35.7828H13.9928V34.9993H14.5754C14.8265 34.9993 15.0274 34.939 15.1781 34.8285C15.3288 34.718 15.4092 34.5673 15.4092 34.3865C15.4092 34.2257 15.3388 34.0951 15.1882 33.9947C15.0375 33.8942 14.8567 33.844 14.6256 33.844C14.0933 33.844 13.6513 34.0047 13.2796 34.3262L12.7974 33.6431C13.3198 33.191 13.9627 32.96 14.7261 32.96C15.2484 32.96 15.6703 33.0805 16.0018 33.3216C16.3333 33.5627 16.494 33.8641 16.494 34.2358C16.494 34.7381 16.2429 35.0997 15.7507 35.3107C16.3233 35.5116 16.6146 35.8933 16.6146 36.4659C16.6146 36.8778 16.4337 37.2194 16.0822 37.5006C15.7306 37.7819 15.2685 37.9226 14.706 37.9226L14.716 37.9125Z" fill="white"/>
<path d="M18.6537 39.2486V33.0604H19.7386V33.854C20.1604 33.2613 20.6928 32.96 21.3458 32.96C21.9485 32.96 22.4608 33.181 22.9027 33.633C23.3447 34.075 23.5557 34.6878 23.5557 35.4413C23.5557 36.1947 23.3347 36.7874 22.9027 37.2394C22.4708 37.6815 21.9485 37.9125 21.3458 37.9125C20.6928 37.9125 20.1604 37.6312 19.7386 37.0787V39.2586H18.6537V39.2486ZM21.0946 36.9682C21.4763 36.9682 21.7978 36.8276 22.059 36.5463C22.3201 36.265 22.4507 35.8933 22.4507 35.4312C22.4507 34.9691 22.3201 34.6175 22.059 34.3362C21.7978 34.055 21.4763 33.9143 21.0946 33.9143C20.7129 33.9143 20.3915 34.055 20.1203 34.3463C19.849 34.6376 19.7084 34.9993 19.7084 35.4513C19.7084 35.9034 19.849 36.255 20.1203 36.5463C20.3915 36.8276 20.723 36.9783 21.0946 36.9783V36.9682Z" fill="white"/>
<path d="M29.5626 37.802H28.4878V37.2194C28.1061 37.6714 27.5938 37.9025 26.9509 37.9025C26.4788 37.9025 26.077 37.7719 25.7555 37.5107C25.4341 37.2495 25.2633 36.8879 25.2633 36.4157C25.2633 35.9034 25.4441 35.5216 25.7957 35.2605C26.1473 34.9993 26.6093 34.8687 27.192 34.8687C27.654 34.8687 28.096 34.939 28.5079 35.0696V34.9792C28.5079 34.6477 28.4074 34.3965 28.2065 34.2257C28.0056 34.055 27.7143 33.9646 27.3426 33.9646C26.9107 33.9646 26.4587 34.065 25.9866 34.2659L25.6952 33.392C26.2779 33.1308 26.8806 33.0002 27.5034 33.0002C28.1965 33.0002 28.7088 33.1709 29.0603 33.5225C29.4119 33.8741 29.5827 34.3664 29.5827 35.0093V37.8221L29.5626 37.802ZM28.5079 36.0842V35.813C28.1864 35.6824 27.8248 35.6221 27.423 35.6221C27.0815 35.6221 26.8102 35.6924 26.6194 35.823C26.4285 35.9536 26.3281 36.1445 26.3281 36.3755C26.3281 36.5865 26.4185 36.7573 26.5893 36.8879C26.76 37.0185 26.981 37.0787 27.2422 37.0787C27.6038 37.0787 27.9052 36.9883 28.1462 36.7975C28.3873 36.6166 28.4978 36.3755 28.4978 36.0742L28.5079 36.0842Z" fill="white"/>
<path d="M34.0528 37.9125C33.2893 37.9125 32.6866 37.6714 32.2547 37.1892C31.8228 36.707 31.6118 36.0239 31.6118 35.15C31.6118 34.8687 31.6118 34.6175 31.6319 34.4066C31.642 34.1956 31.6721 33.9646 31.7223 33.7134C31.7625 33.4623 31.8328 33.2513 31.9132 33.0604C32.0036 32.8796 32.1141 32.6988 32.2447 32.528C32.3752 32.3573 32.5561 32.2166 32.767 32.0961C32.9779 31.9755 33.2291 31.8951 33.5103 31.8349L36.102 31.2924L36.2828 32.1664L33.6911 32.7289C33.2592 32.8194 32.9478 32.9801 32.767 33.2111C32.5761 33.4422 32.4757 33.7335 32.4456 34.0751C32.5862 33.834 32.8172 33.623 33.1286 33.4522C33.44 33.2714 33.8217 33.191 34.2738 33.191C34.8865 33.191 35.4189 33.412 35.8709 33.8641C36.3129 34.3061 36.5439 34.8586 36.5439 35.5016C36.5439 36.1445 36.3129 36.7372 35.8408 37.2093C35.3687 37.6815 34.7861 37.9226 34.0729 37.9226L34.0528 37.9125ZM34.0729 36.9682C34.4747 36.9682 34.8061 36.8276 35.0573 36.5463C35.3084 36.265 35.439 35.9235 35.439 35.5116C35.439 35.0997 35.3084 34.7582 35.0372 34.4769C34.766 34.1956 34.4445 34.055 34.0528 34.055C33.661 34.055 33.3295 34.1956 33.0784 34.4769C32.8273 34.7582 32.6967 35.1098 32.6967 35.5216C32.6967 35.9335 32.8273 36.2751 33.0884 36.5564C33.3496 36.8376 33.6811 36.9783 34.0628 36.9783L34.0729 36.9682Z" fill="white"/>
<path d="M40.7929 37.9125C40.0697 37.9125 39.477 37.6714 38.9949 37.1892C38.5127 36.707 38.2716 36.1244 38.2716 35.4312C38.2716 34.7381 38.5127 34.1554 38.9949 33.6732C39.477 33.191 40.0797 32.9499 40.803 32.9499C41.5262 32.9499 42.1189 33.191 42.601 33.6732C43.0832 34.1554 43.3243 34.7381 43.3243 35.4312C43.3243 36.1244 43.0832 36.697 42.601 37.1792C42.1189 37.6614 41.5061 37.9025 40.7829 37.9025L40.7929 37.9125ZM40.813 36.9682C41.2449 36.9682 41.5965 36.8175 41.8577 36.5262C42.1189 36.2349 42.2495 35.8732 42.2495 35.4413C42.2495 35.0093 42.1088 34.6577 41.8376 34.3563C41.5664 34.065 41.2148 33.9143 40.7929 33.9143C40.371 33.9143 40.0194 34.065 39.7583 34.3563C39.4971 34.6477 39.3665 35.0093 39.3665 35.4413C39.3665 35.8732 39.5071 36.2248 39.7784 36.5162C40.0496 36.8175 40.4012 36.9682 40.813 36.9682Z" fill="white"/>
<path d="M46.1772 37.802V33.9847H44.6504V33.0504H48.799V33.9847H47.2722V37.802H46.1772Z" fill="white"/>
<path d="M50.5569 37.802V33.0504H51.6317V35.3207L53.701 33.0504H54.9767L53.1385 35.0495L55.1374 37.802H53.8517L52.4152 35.8431L51.6417 36.6568V37.802H50.5669H50.5569Z" fill="white"/>
<path d="M60.5916 37.802H59.5168V37.2194C59.1351 37.6714 58.6228 37.9025 57.9799 37.9025C57.5078 37.9025 57.106 37.7719 56.7846 37.5107C56.4631 37.2495 56.2924 36.8879 56.2924 36.4157C56.2924 35.9034 56.4732 35.5216 56.8247 35.2605C57.1763 34.9993 57.6384 34.8687 58.221 34.8687C58.6831 34.8687 59.1251 34.939 59.5369 35.0696V34.9792C59.5369 34.6477 59.4365 34.3965 59.2356 34.2257C59.0347 34.055 58.7434 33.9646 58.3717 33.9646C57.9397 33.9646 57.4877 34.065 57.0156 34.2659L56.7243 33.392C57.3069 33.1308 57.9096 33.0002 58.5324 33.0002C59.2255 33.0002 59.7378 33.1709 60.0894 33.5225C60.441 33.8741 60.6117 34.3664 60.6117 35.0093V37.8221L60.5916 37.802ZM59.5369 36.0842V35.813C59.2155 35.6824 58.8538 35.6221 58.452 35.6221C58.1105 35.6221 57.8393 35.6924 57.6484 35.823C57.4576 35.9536 57.3571 36.1445 57.3571 36.3755C57.3571 36.5865 57.4475 36.7573 57.6183 36.8879C57.7891 37.0185 58.0101 37.0787 58.2712 37.0787C58.6329 37.0787 58.9342 36.9883 59.1753 36.7975C59.4164 36.6166 59.5269 36.3755 59.5269 36.0742L59.5369 36.0842Z" fill="white"/>
<path d="M68.5776 37.9125C67.8744 37.9125 67.2918 37.6714 66.8297 37.1993C66.3677 36.7271 66.1266 36.1445 66.1266 35.4614V35.4413C66.1266 34.7582 66.3576 34.1755 66.8297 33.6933C67.3019 33.2111 67.8845 32.96 68.5876 32.96C69.351 32.96 69.9839 33.2312 70.4861 33.7837L69.8131 34.507C69.4314 34.1152 69.0296 33.9143 68.5776 33.9143C68.1858 33.9143 67.8644 34.065 67.6032 34.3563C67.342 34.6477 67.2115 35.0093 67.2115 35.4212V35.4413C67.2115 35.8732 67.342 36.2349 67.6133 36.5262C67.8845 36.8175 68.216 36.9682 68.6379 36.9682C69.0798 36.9682 69.4816 36.7673 69.8734 36.3755L70.5263 37.0184C70.2651 37.3098 69.9839 37.5308 69.6825 37.6815C69.3812 37.8321 69.0095 37.9125 68.5776 37.9125Z" fill="white"/>
<path d="M76.3524 37.802H75.2776V37.2194C74.8959 37.6714 74.3836 37.9025 73.7407 37.9025C73.2686 37.9025 72.8667 37.7719 72.5453 37.5107C72.2239 37.2495 72.0531 36.8879 72.0531 36.4157C72.0531 35.9034 72.2339 35.5216 72.5855 35.2605C72.9371 34.9993 73.3991 34.8687 73.9817 34.8687C74.4438 34.8687 74.8858 34.939 75.2976 35.0696V34.9792C75.2976 34.6477 75.1972 34.3965 74.9963 34.2257C74.7954 34.055 74.5041 33.9646 74.1324 33.9646C73.7005 33.9646 73.2485 34.065 72.7763 34.2659L72.485 33.392C73.0677 33.1308 73.6704 33.0002 74.2931 33.0002C74.9863 33.0002 75.4986 33.1709 75.8501 33.5225C76.2017 33.8741 76.3725 34.3664 76.3725 35.0093V37.8221L76.3524 37.802ZM75.2976 36.0842V35.813C74.9762 35.6824 74.6146 35.6221 74.2128 35.6221C73.8712 35.6221 73.6 35.6924 73.4092 35.823C73.2183 35.9536 73.1179 36.1445 73.1179 36.3755C73.1179 36.5865 73.2083 36.7573 73.379 36.8879C73.5498 37.0185 73.7708 37.0787 74.032 37.0787C74.3936 37.0787 74.6949 36.9883 74.936 36.7975C75.1771 36.6166 75.2876 36.3755 75.2876 36.0742L75.2976 36.0842Z" fill="white"/>
<path d="M78.5424 37.802V33.0504H79.6071V36.2349C80.6016 34.8184 81.355 33.7637 81.8572 33.0504H82.8818V37.802H81.8271V34.6376L79.567 37.802H78.5424ZM81.6563 32.1664C81.4052 32.3874 81.0938 32.5079 80.7121 32.5079C80.3304 32.5079 80.019 32.3974 79.7679 32.1664C79.5167 31.9353 79.356 31.634 79.2957 31.2522L79.9587 31.1216C80.0893 31.5335 80.3304 31.7344 80.702 31.7344C81.0737 31.7344 81.3248 31.5335 81.4454 31.1216L82.0983 31.2522C82.038 31.634 81.8874 31.9454 81.6362 32.1664H81.6563Z" fill="white"/>
<path d="M86.1665 37.802V33.9847H84.6396V33.0504H88.7883V33.9847H87.2614V37.802H86.1665Z" fill="white"/>
<path d="M92.6254 37.9125C91.9022 37.9125 91.3095 37.6714 90.8274 37.1892C90.3452 36.707 90.1041 36.1244 90.1041 35.4312C90.1041 34.7381 90.3452 34.1554 90.8274 33.6732C91.3095 33.191 91.9122 32.9499 92.6355 32.9499C93.3587 32.9499 93.9514 33.191 94.4335 33.6732C94.9157 34.1554 95.1568 34.7381 95.1568 35.4312C95.1568 36.1244 94.9157 36.697 94.4335 37.1792C93.9514 37.6614 93.3386 37.9025 92.6154 37.9025L92.6254 37.9125ZM92.6455 36.9682C93.0775 36.9682 93.429 36.8175 93.6902 36.5262C93.9514 36.2349 94.082 35.8732 94.082 35.4413C94.082 35.0093 93.9413 34.6577 93.6701 34.3563C93.3989 34.065 93.0473 33.9143 92.6254 33.9143C92.2035 33.9143 91.852 34.065 91.5908 34.3563C91.3296 34.6477 91.199 35.0093 91.199 35.4413C91.199 35.8732 91.3397 36.2248 91.6109 36.5162C91.8821 36.8175 92.2337 36.9682 92.6455 36.9682Z" fill="white"/>
<path d="M97.1759 37.802V33.0504H99.6169C100.089 33.0504 100.471 33.1609 100.752 33.3719C101.033 33.5828 101.174 33.8741 101.174 34.2358C101.174 34.728 100.923 35.0997 100.41 35.3207C101.063 35.5116 101.395 35.9034 101.395 36.5061C101.395 36.908 101.234 37.2194 100.923 37.4504C100.611 37.6815 100.179 37.792 99.647 37.792H97.186L97.1759 37.802ZM98.2407 35.0194H99.3557C99.5767 35.0194 99.7474 34.9691 99.878 34.8586C100.009 34.7481 100.069 34.6075 100.069 34.4367C100.069 34.276 100.009 34.1454 99.8981 34.0449C99.7876 33.9445 99.6068 33.8942 99.3758 33.8942H98.2407V35.0194ZM98.2407 36.9481H99.4762C99.7374 36.9481 99.9383 36.8979 100.079 36.7774C100.22 36.6669 100.29 36.5162 100.29 36.3353C100.29 36.1545 100.22 36.0139 100.069 35.9134C99.9182 35.813 99.7073 35.7627 99.426 35.7627H98.2507V36.9481H98.2407Z" fill="white"/>
<path d="M103.303 37.802V36.5664H104.499V37.802H103.303Z" fill="white"/>
<path d="M110.295 37.802V33.0504H111.37L112.856 35.2504L114.353 33.0504H115.428V37.802H114.333V34.6376L112.836 36.7673L111.349 34.6577V37.802H110.285H110.295Z" fill="white"/>
<path d="M121.676 37.802H120.601V37.2194C120.219 37.6714 119.707 37.9025 119.064 37.9025C118.592 37.9025 118.19 37.7719 117.869 37.5107C117.547 37.2495 117.377 36.8879 117.377 36.4157C117.377 35.9034 117.557 35.5216 117.909 35.2605C118.261 34.9993 118.723 34.8687 119.305 34.8687C119.767 34.8687 120.209 34.939 120.621 35.0696V34.9792C120.621 34.6477 120.521 34.3965 120.32 34.2257C120.119 34.055 119.828 33.9646 119.456 33.9646C119.024 33.9646 118.572 34.065 118.1 34.2659L117.809 33.392C118.391 33.1308 118.994 33.0002 119.617 33.0002C120.31 33.0002 120.822 33.1709 121.174 33.5225C121.525 33.8741 121.696 34.3664 121.696 35.0093V37.8221L121.676 37.802ZM120.621 36.0842V35.813C120.3 35.6824 119.938 35.6221 119.536 35.6221C119.195 35.6221 118.924 35.6924 118.733 35.823C118.542 35.9536 118.441 36.1445 118.441 36.3755C118.441 36.5865 118.532 36.7573 118.703 36.8879C118.873 37.0185 119.094 37.0787 119.355 37.0787C119.717 37.0787 120.018 36.9883 120.26 36.7975C120.501 36.6166 120.611 36.3755 120.611 36.0742L120.621 36.0842Z" fill="white"/>
<path d="M123.866 39.2486V33.0604H124.95V33.854C125.372 33.2613 125.905 32.96 126.558 32.96C127.16 32.96 127.673 33.181 128.115 33.633C128.557 34.075 128.768 34.6878 128.768 35.4413C128.768 36.1947 128.547 36.7874 128.115 37.2394C127.683 37.6815 127.16 37.9125 126.558 37.9125C125.905 37.9125 125.372 37.6312 124.95 37.0787V39.2586H123.866V39.2486ZM126.307 36.9682C126.688 36.9682 127.01 36.8276 127.271 36.5463C127.532 36.265 127.663 35.8933 127.663 35.4312C127.663 34.9691 127.532 34.6175 127.271 34.3362C127.01 34.055 126.688 33.9143 126.307 33.9143C125.925 33.9143 125.603 34.055 125.332 34.3463C125.061 34.6376 124.92 34.9993 124.92 35.4513C124.92 35.9034 125.061 36.255 125.332 36.5463C125.603 36.8276 125.935 36.9783 126.307 36.9783V36.9682Z" fill="white"/>
<path d="M130.787 37.802V33.0504H131.862V35.3207L133.931 33.0504H135.207L133.368 35.0495L135.367 37.802H134.082L132.645 35.8431L131.872 36.6568V37.802H130.797H130.787Z" fill="white"/>
<path d="M138.923 37.9125C138.23 37.9125 137.647 37.6815 137.185 37.2194C136.723 36.7573 136.492 36.1646 136.492 35.4312C136.492 34.7381 136.713 34.1554 137.145 33.6833C137.587 33.2011 138.14 32.96 138.813 32.96C139.536 32.96 140.088 33.2011 140.49 33.6933C140.892 34.1856 141.093 34.7883 141.093 35.5116C141.093 35.6422 141.093 35.7426 141.073 35.813H137.587C137.647 36.1947 137.798 36.486 138.049 36.697C138.3 36.9079 138.602 37.0184 138.953 37.0184C139.425 37.0184 139.847 36.8276 140.239 36.4559L140.872 37.0184C140.38 37.6111 139.737 37.9125 138.933 37.9125H138.923ZM137.567 35.0997H140.008C139.968 34.7381 139.847 34.4367 139.636 34.1956C139.425 33.9545 139.144 33.844 138.803 33.844C138.461 33.844 138.2 33.9645 137.979 34.1956C137.758 34.4266 137.627 34.728 137.577 35.0997H137.567Z" fill="white"/>
<path d="M143.916 37.802V33.9847H142.389V33.0504H146.537V33.9847H145.011V37.802H143.916Z" fill="white"/>
<path d="M148.305 37.802V33.0504H149.37V36.2349C150.365 34.8184 151.118 33.7636 151.62 33.0504H152.645V37.802H151.59V34.6376L149.33 37.802H148.305Z" fill="white"/>
<path d="M154.905 37.802V33.0504H155.99V34.9792H158.079V33.0504H159.164V37.802H158.079V35.8833H155.99V37.802H154.905Z" fill="white"/>
<path d="M161.434 37.802V33.0504H164.799V33.9847H162.529V37.802H161.444H161.434Z" fill="white"/>
<path d="M30.8383 0.0602722H24.088V26.3298H43.4448V20.4028H30.8383V0.0602722Z" fill="white"/>
<path d="M82.922 17.1681L76.3927 0.0602722H68.9292L79.6573 26.4805H86.0761L96.8444 0.0602722H89.4814L82.922 17.1681Z" fill="white"/>
<path d="M141.113 0.0602722V14.506L129.631 0.0602722H123.855V26.3298H130.495V11.8037L142.127 26.3298H147.723V0.0602722H141.113Z" fill="white"/>
<path d="M119.727 0.0602722H99.7675V5.98724H119.727V0.0602722Z" fill="white"/>
<path d="M105.694 13.6421L99.7675 10.2366V16.1635H119.727V10.2366H105.694V13.6421Z" fill="white"/>
<path d="M105.694 23.8083L99.7675 20.4028V26.3298H119.727V20.4028H105.694V23.8083Z" fill="white"/>
<path d="M0 0.0602722V5.98724V10.2366V16.1635V20.4028V26.3298H5.92658H20.6024V20.4028H5.92658V16.1635H20.6024V10.2366H5.92658V5.98724H20.6024V0.0602722H5.92658H0Z" fill="white"/>
<path d="M46.9404 0.0602722V5.98724V10.2366V16.1635V20.4028V26.3298H52.867H66.9V20.4028H52.867V16.1635H66.9V10.2366H52.867V5.98724H66.9V0.0602722H52.867H46.9404Z" fill="white"/>
</svg>
