<svg width="555" height="129" viewBox="0 0 555 129" fill="none" xmlns="http://www.w3.org/2000/svg">
<g filter="url(#filter0_d_17319_3612)">
<path d="M128.445 68.8609H130.976V83.5226H128.445V68.8609ZM129.697 63.0129C130.151 63.0129 130.522 63.17 130.813 63.4841C131.121 63.7982 131.275 64.1955 131.275 64.6759C131.275 65.1563 131.121 65.5535 130.813 65.8676C130.522 66.1817 130.151 66.3388 129.697 66.3388C129.243 66.3388 128.862 66.1817 128.554 65.8676C128.264 65.5535 128.119 65.1563 128.119 64.6759C128.119 64.1955 128.264 63.7982 128.554 63.4841C128.862 63.17 129.243 63.0129 129.697 63.0129Z" fill="white"/>
<path d="M148.139 68.7815C149.826 68.7815 151.15 69.2896 152.112 70.3059C153.073 71.3036 153.554 72.6894 153.554 74.4632V83.5263H151.023V75.1539C151.023 73.916 150.679 72.9552 149.989 72.2715C149.318 71.5694 148.384 71.2183 147.186 71.2183C145.898 71.2368 144.846 71.6618 144.03 72.4932C143.231 73.3062 142.778 74.3686 142.669 75.6805V83.5238H140.138V68.8621H142.669V71.9662C143.631 69.8783 145.454 68.8159 148.139 68.7789V68.7815Z" fill="white"/>
<path d="M175.719 62.957V83.522H173.189V80.6119C172.644 81.5912 171.91 82.3487 170.984 82.8846C170.077 83.4019 169.016 83.6606 167.801 83.6606C166.44 83.6606 165.234 83.3465 164.181 82.7183C163.147 82.0716 162.34 81.1847 161.759 80.0576C161.179 78.912 160.889 77.6094 160.889 76.1497C160.889 74.7085 161.179 73.4336 161.759 72.325C162.34 71.1979 163.147 70.3202 164.181 69.692C165.234 69.0638 166.431 68.7497 167.773 68.7497C169.007 68.7497 170.086 69.0084 171.012 69.5257C171.937 70.0431 172.662 70.7914 173.189 71.7707V62.958L175.719 62.957ZM168.317 81.4434C169.261 81.4434 170.095 81.2216 170.821 80.7782C171.565 80.3347 172.145 79.7158 172.563 78.9213C172.98 78.1268 173.188 77.2306 173.188 76.2329C173.188 75.2166 172.98 74.3113 172.563 73.5168C172.145 72.7222 171.565 72.1033 170.821 71.6598C170.095 71.2164 169.261 70.9946 168.317 70.9946C167.374 70.9946 166.531 71.2256 165.787 71.6875C165.061 72.131 164.49 72.75 164.072 73.5445C163.655 74.339 163.446 75.2351 163.446 76.2329C163.446 77.2306 163.655 78.1268 164.072 78.9213C164.49 79.7158 165.061 80.3347 165.787 80.7782C166.531 81.2216 167.374 81.4434 168.317 81.4434Z" fill="white"/>
<path d="M191.04 68.7815C192.474 68.7815 193.743 69.0956 194.85 69.7238C195.975 70.352 196.846 71.2297 197.462 72.3568C198.097 73.4654 198.415 74.7403 198.415 76.1815C198.415 77.6227 198.097 78.9068 197.462 80.0339C196.846 81.161 195.975 82.0387 194.85 82.6669C193.743 83.2951 192.474 83.6092 191.04 83.6092C189.589 83.6092 188.301 83.2951 187.176 82.6669C186.07 82.0387 185.199 81.1703 184.564 80.0617C183.947 78.9346 183.639 77.6412 183.639 76.1815C183.639 74.7403 183.947 73.4654 184.564 72.3568C185.199 71.2297 186.07 70.352 187.176 69.7238C188.301 69.0956 189.589 68.7815 191.04 68.7815ZM191.04 71.0265C190.097 71.0265 189.253 71.2482 188.51 71.6916C187.784 72.1351 187.213 72.754 186.795 73.5485C186.396 74.3246 186.197 75.2115 186.197 76.2092C186.197 77.2255 186.396 78.1308 186.795 78.9253C187.213 79.7198 187.784 80.3388 188.51 80.7823C189.253 81.2072 190.097 81.4197 191.04 81.4197C191.966 81.4197 192.791 81.2072 193.517 80.7823C194.26 80.3388 194.832 79.7198 195.231 78.9253C195.648 78.1308 195.857 77.2255 195.857 76.2092C195.857 75.2115 195.648 74.3246 195.231 73.5485C194.832 72.754 194.26 72.1351 193.517 71.6916C192.791 71.2482 191.966 71.0265 191.04 71.0265Z" fill="white"/>
<path d="M212.194 68.7815C213.627 68.7815 214.897 69.0956 216.003 69.7238C217.128 70.352 217.999 71.2297 218.616 72.3568C219.251 73.4654 219.568 74.7403 219.568 76.1815C219.568 77.6227 219.251 78.9068 218.616 80.0339C217.999 81.161 217.128 82.0387 216.003 82.6669C214.897 83.2951 213.627 83.6092 212.194 83.6092C210.742 83.6092 209.454 83.2951 208.329 82.6669C207.223 82.0387 206.352 81.1703 205.717 80.0617C205.1 78.9346 204.792 77.6412 204.792 76.1815C204.792 74.7403 205.1 73.4654 205.717 72.3568C206.352 71.2297 207.223 70.352 208.329 69.7238C209.454 69.0956 210.742 68.7815 212.194 68.7815ZM212.194 71.0265C211.25 71.0265 210.407 71.2482 209.663 71.6916C208.937 72.1351 208.366 72.754 207.948 73.5485C207.549 74.3246 207.35 75.2115 207.35 76.2092C207.35 77.2255 207.549 78.1308 207.948 78.9253C208.366 79.7198 208.937 80.3388 209.663 80.7823C210.407 81.2072 211.25 81.4197 212.194 81.4197C213.119 81.4197 213.944 81.2072 214.67 80.7823C215.414 80.3388 215.985 79.7198 216.384 78.9253C216.802 78.1308 217.01 77.2255 217.01 76.2092C217.01 75.2115 216.802 74.3246 216.384 73.5485C215.985 72.754 215.414 72.1351 214.67 71.6916C213.944 71.2482 213.119 71.0265 212.194 71.0265Z" fill="white"/>
<path d="M229.889 72.0222C230.36 70.9691 231.031 70.1745 231.902 69.6387C232.773 69.0844 233.807 68.798 235.004 68.7795V71.2739C233.535 71.2185 232.347 71.6065 231.44 72.438C230.533 73.2694 230.016 74.3873 229.889 75.7915V83.5244H227.358V68.8627H229.889V72.0222Z" fill="white"/>
<path d="M247.683 60.8279H249.887L241.315 86.8529H239.138L247.683 60.8279Z" fill="white"/>
<path d="M261.034 68.7815C262.467 68.7815 263.737 69.0956 264.843 69.7238C265.968 70.352 266.839 71.2297 267.456 72.3568C268.091 73.4654 268.408 74.7403 268.408 76.1815C268.408 77.6227 268.091 78.9068 267.456 80.0339C266.839 81.161 265.968 82.0387 264.843 82.6669C263.737 83.2951 262.467 83.6092 261.034 83.6092C259.582 83.6092 258.294 83.2951 257.17 82.6669C256.063 82.0387 255.192 81.1703 254.557 80.0617C253.94 78.9346 253.632 77.6412 253.632 76.1815C253.632 74.7403 253.94 73.4654 254.557 72.3568C255.192 71.2297 256.063 70.352 257.17 69.7238C258.294 69.0956 259.582 68.7815 261.034 68.7815ZM261.034 71.0265C260.09 71.0265 259.247 71.2482 258.503 71.6916C257.777 72.1351 257.206 72.754 256.789 73.5485C256.39 74.3246 256.19 75.2115 256.19 76.2092C256.19 77.2255 256.39 78.1308 256.789 78.9253C257.206 79.7198 257.777 80.3388 258.503 80.7823C259.247 81.2072 260.09 81.4197 261.034 81.4197C261.959 81.4197 262.784 81.2072 263.51 80.7823C264.254 80.3388 264.825 79.7198 265.225 78.9253C265.642 78.1308 265.85 77.2255 265.85 76.2092C265.85 75.2115 265.642 74.3246 265.225 73.5485C264.825 72.754 264.254 72.1351 263.51 71.6916C262.784 71.2482 261.959 71.0265 261.034 71.0265Z" fill="white"/>
<path d="M288.933 68.861V83.5227H286.375V80.4186C285.432 82.5065 283.654 83.5689 281.042 83.6058C279.373 83.6058 278.067 83.107 277.123 82.1092C276.18 81.093 275.708 79.698 275.708 77.9242V68.8611H278.266V77.2407C278.266 78.4786 278.593 79.4487 279.246 80.1508C279.917 80.8344 280.833 81.1763 281.994 81.1763C283.337 81.1578 284.398 80.6774 285.178 79.7351C285.976 78.7743 286.375 77.5548 286.375 76.0766V68.8706L288.933 68.861Z" fill="white"/>
<path d="M305.828 82.5527C304.721 83.2733 303.596 83.6336 302.453 83.6336C301.31 83.6336 300.385 83.2917 299.678 82.6081C298.97 81.906 298.616 80.8528 298.616 79.4485V71.3281H296.575V69.3603H298.616V65.4247H301.174V69.3603H305.583V71.3281H301.174V78.9772C301.174 79.7902 301.319 80.3722 301.61 80.7233C301.9 81.0744 302.335 81.2499 302.916 81.2499C303.605 81.2499 304.349 81.0189 305.147 80.557L305.828 82.5527Z" fill="white"/>
<path d="M326.343 62.957V83.522H323.812V80.6119C323.268 81.5912 322.533 82.3487 321.608 82.8846C320.701 83.4019 319.64 83.6606 318.424 83.6606C317.064 83.6606 315.857 83.3465 314.805 82.7183C313.771 82.0716 312.964 81.1847 312.383 80.0576C311.803 78.912 311.512 77.6094 311.512 76.1497C311.512 74.7085 311.803 73.4336 312.383 72.325C312.964 71.1979 313.771 70.3202 314.805 69.692C315.857 69.0638 317.055 68.7497 318.397 68.7497C319.631 68.7497 320.71 69.0084 321.635 69.5257C322.561 70.0431 323.286 70.7914 323.812 71.7707V62.958L326.343 62.957ZM318.941 81.4434C319.885 81.4434 320.719 81.2216 321.445 80.7782C322.189 80.3347 322.769 79.7158 323.186 78.9213C323.604 78.1268 323.812 77.2306 323.812 76.2329C323.812 75.2166 323.604 74.3113 323.186 73.5168C322.769 72.7222 322.189 72.1033 321.445 71.6598C320.719 71.2164 319.885 70.9946 318.941 70.9946C317.998 70.9946 317.154 71.2256 316.411 71.6875C315.685 72.131 315.113 72.75 314.696 73.5445C314.279 74.339 314.07 75.2351 314.07 76.2329C314.07 77.2306 314.279 78.1268 314.696 78.9213C315.113 79.7158 315.685 80.3347 316.411 80.7782C317.154 81.2216 317.998 81.4434 318.941 81.4434Z" fill="white"/>
<path d="M341.664 68.7815C343.097 68.7815 344.367 69.0956 345.474 69.7238C346.599 70.352 347.469 71.2297 348.086 72.3568C348.721 73.4654 349.039 74.7403 349.039 76.1815C349.039 77.6227 348.721 78.9068 348.086 80.0339C347.469 81.161 346.599 82.0387 345.474 82.6669C344.367 83.2951 343.097 83.6092 341.664 83.6092C340.213 83.6092 338.925 83.2951 337.8 82.6669C336.693 82.0387 335.823 81.1703 335.188 80.0617C334.571 78.9346 334.262 77.6412 334.262 76.1815C334.262 74.7403 334.571 73.4654 335.188 72.3568C335.823 71.2297 336.693 70.352 337.8 69.7238C338.925 69.0956 340.213 68.7815 341.664 68.7815ZM341.664 71.0265C340.721 71.0265 339.877 71.2482 339.133 71.6916C338.408 72.1351 337.836 72.754 337.419 73.5485C337.02 74.3246 336.82 75.2115 336.82 76.2092C336.82 77.2255 337.02 78.1308 337.419 78.9253C337.836 79.7198 338.408 80.3388 339.133 80.7823C339.877 81.2072 340.721 81.4197 341.664 81.4197C342.589 81.4197 343.415 81.2072 344.14 80.7823C344.884 80.3388 345.456 79.7198 345.855 78.9253C346.272 78.1308 346.481 77.2255 346.481 76.2092C346.481 75.2115 346.272 74.3246 345.855 73.5485C345.456 72.754 344.884 72.1351 344.14 71.6916C343.415 71.2482 342.589 71.0265 341.664 71.0265Z" fill="white"/>
<path d="M362.817 68.7815C364.251 68.7815 365.52 69.0956 366.627 69.7238C367.752 70.352 368.623 71.2297 369.239 72.3568C369.874 73.4654 370.192 74.7403 370.192 76.1815C370.192 77.6227 369.874 78.9068 369.239 80.0339C368.623 81.161 367.752 82.0387 366.627 82.6669C365.52 83.2951 364.251 83.6092 362.817 83.6092C361.366 83.6092 360.078 83.2951 358.953 82.6669C357.847 82.0387 356.976 81.1703 356.341 80.0617C355.724 78.9346 355.416 77.6412 355.416 76.1815C355.416 74.7403 355.724 73.4654 356.341 72.3568C356.976 71.2297 357.847 70.352 358.953 69.7238C360.078 69.0956 361.366 68.7815 362.817 68.7815ZM362.817 71.0265C361.874 71.0265 361.03 71.2482 360.287 71.6916C359.561 72.1351 358.99 72.754 358.572 73.5485C358.173 74.3246 357.974 75.2115 357.974 76.2092C357.974 77.2255 358.173 78.1308 358.572 78.9253C358.99 79.7198 359.561 80.3388 360.287 80.7823C361.03 81.2072 361.874 81.4197 362.817 81.4197C363.743 81.4197 364.568 81.2072 365.294 80.7823C366.037 80.3388 366.609 79.7198 367.008 78.9253C367.425 78.1308 367.634 77.2255 367.634 76.2092C367.634 75.2115 367.425 74.3246 367.008 73.5485C366.609 72.754 366.037 72.1351 365.294 71.6916C364.568 71.2482 363.743 71.0265 362.817 71.0265Z" fill="white"/>
<path d="M380.512 72.0222C380.984 70.9691 381.655 70.1745 382.526 69.6387C383.397 69.0844 384.431 68.798 385.628 68.7795V71.2739C384.159 71.2185 382.97 71.6065 382.063 72.438C381.156 73.2694 380.639 74.3873 380.512 75.7915V83.5244H377.982V68.8627H380.512V72.0222Z" fill="white"/>
<path d="M51.2519 46.5371H66.1265L43.3009 25.7505L65.6092 5.43311H50.6779L35.86 18.9371L21.0422 5.43311H6.10947L28.422 25.7512L5.59003 46.5385H20.5227L35.8593 32.5624L51.2519 46.5371Z" fill="white"/>
<path d="M90.4971 15.415H112.061V5.43237H90.5552C76.2568 5.43237 69.9717 5.43238 69.9717 18.0573V33.9121C69.9717 46.5371 76.2562 46.537 90.5552 46.537H112.061V36.5552H90.4971C83.0017 36.5552 82.2527 36.6139 82.2527 29.2734V22.6965C82.2527 15.3563 83.0022 15.415 90.4971 15.415Z" fill="white"/>
<path d="M147.217 5.43322C132.054 5.43322 119.773 5.4332 119.773 20.4075V31.5644C119.773 46.5386 132.054 46.5386 147.217 46.5386C162.381 46.5386 174.661 46.5386 174.661 31.5644V20.3988C174.661 5.42455 162.38 5.42456 147.217 5.42456V5.43322ZM132.054 28.5698V23.4023C132.054 14.7701 138.799 15.416 147.217 15.416C155.059 15.416 161.574 14.8875 162.381 21.758V30.2141C161.574 37.0846 155.059 36.5561 147.217 36.5561C138.799 36.5561 132.054 37.202 132.054 28.5698Z" fill="white"/>
<path d="M244.395 5.43311C237.13 5.43311 230.615 5.55055 226.118 7.78198C221.679 5.55053 215.164 5.43311 207.899 5.43311C194.407 5.43311 183.51 5.72672 183.51 19.4676V46.5385H195.791V22.8736C195.791 16.0618 201.211 15.4157 207.899 15.4157C214.587 15.4157 220.007 16.0616 220.007 22.8736V46.5385H232.288V22.8736C232.288 16.0618 237.708 15.4157 244.396 15.4157C251.084 15.4157 256.504 16.0616 256.504 22.8736V46.5385H268.785V19.4676C268.785 5.72687 257.888 5.43311 244.397 5.43311H244.395Z" fill="white"/>
<path d="M317.251 5.43311H279.313V15.4157H312.638C315.694 15.4157 315.983 17.882 315.983 20.9943C315.983 24.1066 315.694 26.5729 312.638 26.5729H279.313V46.5381H291.594V36.5562H317.251C325.727 36.5562 327.802 29.5683 327.802 20.9952C327.802 12.4214 325.727 5.43412 317.251 5.43412V5.43311Z" fill="white"/>
<path d="M374.737 46.537H388.401L366.434 5.43164H350.867L328.901 46.537H342.507L358.651 16.354L374.737 46.537Z" fill="white"/>
<path d="M422.705 5.43308C407.542 5.43308 395.261 5.43306 395.261 20.4073V46.5385H407.542V23.4019C407.542 14.7697 414.288 15.4157 422.706 15.4157C431.124 15.4157 437.985 14.8285 437.985 23.4019L437.869 33.3845V46.5385H450.15V20.3965C450.15 5.42225 437.869 5.42224 422.706 5.42224L422.705 5.43308Z" fill="white"/>
<path d="M490.098 25.7505L512.406 5.43311H497.474L482.656 18.9393L467.838 5.43311H452.905L475.218 25.7512L476.544 26.9257V46.5358H488.768V26.9228L490.098 25.7505Z" fill="white"/>
</g>
<defs>
<filter id="filter0_d_17319_3612" x="0.961927" y="0.794142" width="553.097" height="127.712" filterUnits="userSpaceOnUse" color-interpolation-filters="sRGB">
<feFlood flood-opacity="0" result="BackgroundImageFix"/>
<feColorMatrix in="SourceAlpha" type="matrix" values="0 0 0 0 0 0 0 0 0 0 0 0 0 0 0 0 0 0 127 0" result="hardAlpha"/>
<feOffset dx="18.5124" dy="18.5124"/>
<feGaussianBlur stdDeviation="11.5702"/>
<feComposite in2="hardAlpha" operator="out"/>
<feColorMatrix type="matrix" values="0 0 0 0 0.116099 0 0 0 0 0.138658 0 0 0 0 0.206336 0 0 0 0.4 0"/>
<feBlend mode="normal" in2="BackgroundImageFix" result="effect1_dropShadow_17319_3612"/>
<feBlend mode="normal" in="SourceGraphic" in2="effect1_dropShadow_17319_3612" result="shape"/>
</filter>
</defs>
</svg>
