<svg width="716" height="114" viewBox="0 0 716 114" fill="none" xmlns="http://www.w3.org/2000/svg">
<g clip-path="url(#clip0_11001_8777)">
<g clip-path="url(#clip1_11001_8777)">
<path d="M173.77 88.48H177.341V108.794H173.77V88.48ZM175.537 80.3776C176.177 80.3776 176.701 80.5952 177.111 81.0304C177.546 81.4656 177.764 82.016 177.764 82.6816C177.764 83.3472 177.546 83.8976 177.111 84.3328C176.701 84.768 176.177 84.9856 175.537 84.9856C174.897 84.9856 174.359 84.768 173.924 84.3328C173.514 83.8976 173.309 83.3472 173.309 82.6816C173.309 82.016 173.514 81.4656 173.924 81.0304C174.359 80.5952 174.897 80.3776 175.537 80.3776Z" fill="#1D2126"/>
<path d="M201.56 88.37C203.941 88.37 205.81 89.074 207.167 90.482C208.523 91.8644 209.202 93.7844 209.202 96.242V108.799H205.631V97.199C205.631 95.4838 205.144 94.1526 204.171 93.2054C203.224 92.2326 201.906 91.7462 200.216 91.7462C198.399 91.7718 196.914 92.3606 195.762 93.5126C194.635 94.639 193.995 96.111 193.842 97.9286V108.796H190.271V88.4816H193.842V92.7824C195.199 89.8896 197.771 88.4176 201.56 88.3664V88.37Z" fill="#1D2126"/>
<path d="M240.48 80.3V108.793H236.909V104.761C236.141 106.118 235.104 107.167 233.798 107.91C232.518 108.627 231.021 108.985 229.306 108.985C227.386 108.985 225.683 108.55 224.198 107.679C222.739 106.783 221.6 105.555 220.781 103.993C219.962 102.406 219.552 100.601 219.552 98.5786C219.552 96.5818 219.962 94.8154 220.781 93.2794C221.6 91.7178 222.739 90.5018 224.198 89.6314C225.683 88.761 227.373 88.3258 229.267 88.3258C231.008 88.3258 232.531 88.6842 233.837 89.401C235.142 90.1178 236.166 91.1546 236.909 92.5114V80.3014L240.48 80.3ZM230.035 105.913C231.366 105.913 232.544 105.606 233.568 104.991C234.617 104.377 235.437 103.519 236.025 102.419C236.614 101.318 236.909 100.076 236.909 98.6938C236.909 97.2858 236.614 96.0314 236.025 94.9306C235.437 93.8298 234.617 92.9722 233.568 92.3578C232.544 91.7434 231.366 91.4362 230.035 91.4362C228.704 91.4362 227.513 91.7562 226.464 92.3962C225.44 93.0106 224.633 93.8682 224.045 94.969C223.456 96.0698 223.161 97.3114 223.161 98.6938C223.161 100.076 223.456 101.318 224.045 102.419C224.633 103.519 225.44 104.377 226.464 104.991C227.513 105.606 228.704 105.913 230.035 105.913Z" fill="#1D2126"/>
<path d="M262.1 88.37C264.122 88.37 265.914 88.8052 267.476 89.6756C269.063 90.546 270.292 91.762 271.162 93.3236C272.058 94.8596 272.506 96.626 272.506 98.6228C272.506 100.62 272.058 102.399 271.162 103.96C270.292 105.522 269.063 106.738 267.476 107.608C265.914 108.479 264.122 108.914 262.1 108.914C260.052 108.914 258.234 108.479 256.647 107.608C255.086 106.738 253.857 105.535 252.961 103.999C252.09 102.437 251.655 100.645 251.655 98.6228C251.655 96.626 252.09 94.8596 252.961 93.3236C253.857 91.762 255.086 90.546 256.647 89.6756C258.234 88.8052 260.052 88.37 262.1 88.37ZM262.1 91.4804C260.769 91.4804 259.578 91.7876 258.529 92.402C257.505 93.0164 256.698 93.874 256.11 94.9748C255.546 96.05 255.265 97.2788 255.265 98.6612C255.265 100.069 255.546 101.324 256.11 102.424C256.698 103.525 257.505 104.383 258.529 104.997C259.578 105.586 260.769 105.88 262.1 105.88C263.406 105.88 264.57 105.586 265.594 104.997C266.644 104.383 267.45 103.525 268.014 102.424C268.602 101.324 268.897 100.069 268.897 98.6612C268.897 97.2788 268.602 96.05 268.014 94.9748C267.45 93.874 266.644 93.0164 265.594 92.402C264.57 91.7876 263.406 91.4804 262.1 91.4804Z" fill="#1D2126"/>
<path d="M291.95 88.37C293.972 88.37 295.764 88.8052 297.326 89.6756C298.913 90.546 300.142 91.762 301.012 93.3236C301.908 94.8596 302.356 96.626 302.356 98.6228C302.356 100.62 301.908 102.399 301.012 103.96C300.142 105.522 298.913 106.738 297.326 107.608C295.764 108.479 293.972 108.914 291.95 108.914C289.902 108.914 288.084 108.479 286.497 107.608C284.936 106.738 283.707 105.535 282.811 103.999C281.94 102.437 281.505 100.645 281.505 98.6228C281.505 96.626 281.94 94.8596 282.811 93.3236C283.707 91.762 284.936 90.546 286.497 89.6756C288.084 88.8052 289.902 88.37 291.95 88.37ZM291.95 91.4804C290.619 91.4804 289.428 91.7876 288.379 92.402C287.355 93.0164 286.548 93.874 285.96 94.9748C285.396 96.05 285.115 97.2788 285.115 98.6612C285.115 100.069 285.396 101.324 285.96 102.424C286.548 103.525 287.355 104.383 288.379 104.997C289.428 105.586 290.619 105.88 291.95 105.88C293.256 105.88 294.42 105.586 295.444 104.997C296.494 104.383 297.3 103.525 297.864 102.424C298.452 101.324 298.747 100.069 298.747 98.6612C298.747 97.2788 298.452 96.05 297.864 94.9748C297.3 93.874 296.494 93.0164 295.444 92.402C294.42 91.7876 293.256 91.4804 291.95 91.4804Z" fill="#1D2126"/>
<path d="M316.92 92.86C317.586 91.4008 318.533 90.3 319.762 89.5576C320.99 88.7896 322.45 88.3928 324.139 88.3672V91.8232C322.066 91.7464 320.389 92.284 319.109 93.436C317.829 94.588 317.099 96.1368 316.92 98.0824V108.796H313.349V88.4824H316.92V92.86Z" fill="#1D2126"/>
<path d="M342.03 77.35H345.14L333.044 113.408H329.972L342.03 77.35Z" fill="#1D2126"/>
<path d="M360.87 88.37C362.892 88.37 364.684 88.8052 366.246 89.6756C367.833 90.546 369.062 91.762 369.932 93.3236C370.828 94.8596 371.277 96.626 371.277 98.6228C371.277 100.62 370.828 102.399 369.932 103.96C369.062 105.522 367.833 106.738 366.246 107.608C364.684 108.479 362.892 108.914 360.87 108.914C358.822 108.914 357.004 108.479 355.417 107.608C353.856 106.738 352.627 105.535 351.731 103.999C350.86 102.437 350.425 100.645 350.425 98.6228C350.425 96.626 350.86 94.8596 351.731 93.3236C352.627 91.762 353.856 90.546 355.417 89.6756C357.004 88.8052 358.822 88.37 360.87 88.37ZM360.87 91.4804C359.539 91.4804 358.349 91.7876 357.299 92.402C356.275 93.0164 355.468 93.874 354.88 94.9748C354.316 96.05 354.035 97.2788 354.035 98.6612C354.035 100.069 354.316 101.324 354.88 102.424C355.468 103.525 356.275 104.383 357.299 104.997C358.349 105.586 359.539 105.88 360.87 105.88C362.176 105.88 363.34 105.586 364.364 104.997C365.414 104.383 366.221 103.525 366.784 102.424C367.373 101.324 367.667 100.069 367.667 98.6612C367.667 97.2788 367.373 96.05 366.784 94.9748C366.221 93.874 365.414 93.0164 364.364 92.402C363.34 91.7876 362.176 91.4804 360.87 91.4804Z" fill="#1D2126"/>
<path d="M400.24 88.48V108.794H396.63V104.493C395.299 107.386 392.79 108.858 389.104 108.909C386.749 108.909 384.906 108.218 383.574 106.836C382.243 105.428 381.578 103.495 381.578 101.037V88.4802H385.187V100.09C385.187 101.805 385.648 103.149 386.57 104.122C387.517 105.069 388.81 105.543 390.448 105.543C392.342 105.517 393.84 104.852 394.941 103.546C396.067 102.215 396.63 100.525 396.63 98.4774V88.4934L400.24 88.48Z" fill="#1D2126"/>
<path d="M424.08 107.45C422.518 108.448 420.931 108.948 419.318 108.948C417.706 108.948 416.4 108.474 415.402 107.527C414.403 106.554 413.904 105.095 413.904 103.149V91.8982H411.024V89.1718H413.904V83.719H417.514V89.1718H423.734V91.8982H417.514V102.496C417.514 103.623 417.718 104.429 418.128 104.915C418.538 105.402 419.152 105.645 419.971 105.645C420.944 105.645 421.994 105.325 423.12 104.685L424.08 107.45Z" fill="#1D2126"/>
<path d="M453.03 80.3V108.793H449.459V104.761C448.691 106.118 447.654 107.167 446.348 107.91C445.068 108.627 443.571 108.985 441.856 108.985C439.936 108.985 438.233 108.55 436.748 107.679C435.289 106.783 434.15 105.555 433.331 103.993C432.512 102.406 432.102 100.601 432.102 98.5786C432.102 96.5818 432.512 94.8154 433.331 93.2794C434.15 91.7178 435.289 90.5018 436.748 89.6314C438.233 88.761 439.923 88.3258 441.817 88.3258C443.558 88.3258 445.081 88.6842 446.387 89.401C447.692 90.1178 448.716 91.1546 449.459 92.5114V80.3014L453.03 80.3ZM442.585 105.913C443.916 105.913 445.094 105.606 446.118 104.991C447.167 104.377 447.987 103.519 448.575 102.419C449.164 101.318 449.459 100.076 449.459 98.6938C449.459 97.2858 449.164 96.0314 448.575 94.9306C447.987 93.8298 447.167 92.9722 446.118 92.3578C445.094 91.7434 443.916 91.4362 442.585 91.4362C441.254 91.4362 440.063 91.7562 439.014 92.3962C437.99 93.0106 437.183 93.8682 436.595 94.969C436.006 96.0698 435.711 97.3114 435.711 98.6938C435.711 100.076 436.006 101.318 436.595 102.419C437.183 103.519 437.99 104.377 439.014 104.991C440.063 105.606 441.254 105.913 442.585 105.913Z" fill="#1D2126"/>
<path d="M474.65 88.37C476.672 88.37 478.464 88.8052 480.026 89.6756C481.613 90.546 482.842 91.762 483.712 93.3236C484.608 94.8596 485.056 96.626 485.056 98.6228C485.056 100.62 484.608 102.399 483.712 103.96C482.842 105.522 481.613 106.738 480.026 107.608C478.464 108.479 476.672 108.914 474.65 108.914C472.602 108.914 470.784 108.479 469.197 107.608C467.636 106.738 466.407 105.535 465.511 103.999C464.64 102.437 464.205 100.645 464.205 98.6228C464.205 96.626 464.64 94.8596 465.511 93.3236C466.407 91.762 467.636 90.546 469.197 89.6756C470.784 88.8052 472.602 88.37 474.65 88.37ZM474.65 91.4804C473.319 91.4804 472.128 91.7876 471.079 92.402C470.055 93.0164 469.248 93.874 468.66 94.9748C468.096 96.05 467.815 97.2788 467.815 98.6612C467.815 100.069 468.096 101.324 468.66 102.424C469.248 103.525 470.055 104.383 471.079 104.997C472.128 105.586 473.319 105.88 474.65 105.88C475.956 105.88 477.12 105.586 478.144 104.997C479.194 104.383 480 103.525 480.564 102.424C481.152 101.324 481.447 100.069 481.447 98.6612C481.447 97.2788 481.152 96.05 480.564 94.9748C480 93.874 479.194 93.0164 478.144 92.402C477.12 91.7876 475.956 91.4804 474.65 91.4804Z" fill="#1D2126"/>
<path d="M504.5 88.37C506.522 88.37 508.314 88.8052 509.876 89.6756C511.463 90.546 512.692 91.762 513.562 93.3236C514.458 94.8596 514.906 96.626 514.906 98.6228C514.906 100.62 514.458 102.399 513.562 103.96C512.692 105.522 511.463 106.738 509.876 107.608C508.314 108.479 506.522 108.914 504.5 108.914C502.452 108.914 500.634 108.479 499.047 107.608C497.486 106.738 496.257 105.535 495.361 103.999C494.49 102.437 494.055 100.645 494.055 98.6228C494.055 96.626 494.49 94.8596 495.361 93.3236C496.257 91.762 497.486 90.546 499.047 89.6756C500.634 88.8052 502.452 88.37 504.5 88.37ZM504.5 91.4804C503.169 91.4804 501.978 91.7876 500.929 92.402C499.905 93.0164 499.098 93.874 498.51 94.9748C497.946 96.05 497.665 97.2788 497.665 98.6612C497.665 100.069 497.946 101.324 498.51 102.424C499.098 103.525 499.905 104.383 500.929 104.997C501.978 105.586 503.169 105.88 504.5 105.88C505.806 105.88 506.97 105.586 507.994 104.997C509.044 104.383 509.85 103.525 510.414 102.424C511.002 101.324 511.297 100.069 511.297 98.6612C511.297 97.2788 511.002 96.05 510.414 94.9748C509.85 93.874 509.044 93.0164 507.994 92.402C506.97 91.7876 505.806 91.4804 504.5 91.4804Z" fill="#1D2126"/>
<path d="M529.47 92.86C530.136 91.4008 531.083 90.3 532.312 89.5576C533.54 88.7896 535 88.3928 536.689 88.3672V91.8232C534.616 91.7464 532.939 92.284 531.659 93.436C530.379 94.588 529.649 96.1368 529.47 98.0824V108.796H525.899V88.4824H529.47V92.86Z" fill="#1D2126"/>
<path d="M64.84 57.55H85.83L53.62 28.75L85.1 0.600006H64.03L43.12 19.31L22.21 0.600006H1.13803L32.624 28.751L0.405029 57.552H21.477L43.119 38.188L64.84 57.55Z" fill="#1D2126"/>
<path d="M120.22 14.43H150.649V0.59903H120.302C100.125 0.59903 91.2561 0.599033 91.2561 18.091V40.058C91.2561 57.55 100.124 57.55 120.302 57.55H150.649V43.72H120.22C109.643 43.72 108.586 43.8014 108.586 33.631V24.5187C108.586 14.3487 109.644 14.43 120.22 14.43Z" fill="#1D2126"/>
<path d="M200.26 0.600037C178.862 0.600037 161.533 0.600016 161.533 21.347V36.805C161.533 57.552 178.863 57.552 200.26 57.552C221.658 57.552 238.987 57.552 238.987 36.805V21.335C238.987 0.588022 221.657 0.588043 200.26 0.588043V0.600037ZM178.862 32.656V25.4963C178.862 13.5363 188.381 14.4313 200.26 14.4313C211.325 14.4313 220.519 13.6991 221.658 23.2182V34.9342C220.519 44.4533 211.325 43.7211 200.26 43.7211C188.381 43.7211 178.862 44.616 178.862 32.656Z" fill="#1D2126"/>
<path d="M337.39 0.600006C327.139 0.600006 317.945 0.762721 311.599 3.8544C305.334 0.762701 296.141 0.600006 285.889 0.600006C266.851 0.600006 251.474 1.00681 251.474 20.045V57.552H268.804V24.764C268.804 15.3262 276.452 14.431 285.89 14.431C295.328 14.431 302.976 15.326 302.976 24.764V57.552H320.306V24.764C320.306 15.3262 327.954 14.431 337.392 14.431C346.83 14.431 354.478 15.326 354.478 24.764V57.552H371.808V20.045C371.808 1.00701 356.431 0.600006 337.393 0.600006H337.39Z" fill="#1D2126"/>
<path d="M440.2 0.600006H386.665V14.431H433.691C438.003 14.431 438.41 17.8481 438.41 22.1602C438.41 26.4723 438.003 29.8894 433.691 29.8894H386.665V57.5514H403.995V43.7214H440.2C452.16 43.7214 455.089 34.0396 455.089 22.1614C455.089 10.2824 452.16 0.60141 440.2 0.60141V0.600006Z" fill="#1D2126"/>
<path d="M521.32 57.55H540.602L509.604 0.597992H487.637L456.639 57.55H475.84L498.621 15.731L521.32 57.55Z" fill="#1D2126"/>
<path d="M589.01 0.600006C567.612 0.600006 550.283 0.599985 550.283 21.347V57.552H567.613V25.496C567.613 13.536 577.132 14.431 589.011 14.431C600.89 14.431 610.571 13.6174 610.571 25.496L610.408 39.327V57.552H627.738V21.332C627.738 0.585001 610.408 0.584991 589.011 0.584991L589.01 0.600006Z" fill="#1D2126"/>
<path d="M684.11 28.75L715.59 0.600006H694.518L673.608 19.313L652.698 0.600006H631.626L663.112 28.751L664.983 30.3782V57.5482H682.233V30.3742L684.11 28.75Z" fill="#1D2126"/>
</g>
</g>
<defs>
<clipPath id="clip0_11001_8777">
<rect width="716" height="114" fill="white"/>
</clipPath>
<clipPath id="clip1_11001_8777">
<rect width="716" height="114" fill="white"/>
</clipPath>
</defs>
</svg>
