<svg width="32" height="33" viewBox="0 0 32 33" fill="none" xmlns="http://www.w3.org/2000/svg">
<g clip-path="url(#clip0_19117_5866)">
<path d="M25.9808 27.1767L17.6315 18.8274C16.9648 19.3954 16.1981 19.835 15.3315 20.1461C14.4648 20.4572 13.5937 20.6127 12.7181 20.6127C10.583 20.6127 8.7759 19.8736 7.29679 18.3954C5.81768 16.9172 5.07813 15.1105 5.07812 12.9754C5.07812 10.8403 5.81679 9.03275 7.29412 7.55275C8.77146 6.07275 10.5777 5.33186 12.7128 5.33008C14.8479 5.3283 16.6559 6.06786 18.1368 7.54875C19.6177 9.02964 20.3581 10.8372 20.3581 12.9714C20.3581 13.8976 20.1941 14.7941 19.8661 15.6607C19.5381 16.5274 19.107 17.2687 18.5728 17.8847L26.9221 26.2327L25.9808 27.1767ZM12.7195 19.2781C14.4883 19.2781 15.9817 18.6692 17.1995 17.4514C18.4172 16.2336 19.0261 14.7399 19.0261 12.9701C19.0261 11.2003 18.4172 9.70697 17.1995 8.49008C15.9817 7.27319 14.4883 6.6643 12.7195 6.66341C10.9506 6.66253 9.45679 7.27141 8.23812 8.49008C7.01946 9.70875 6.41057 11.2021 6.41146 12.9701C6.41235 14.7381 7.02124 16.2314 8.23812 17.4501C9.45501 18.6687 10.9483 19.2776 12.7181 19.2767M12.0515 16.1501V13.6381H9.54079V12.3047H12.0541V9.79275H13.3875V12.3047H15.8995V13.6381H13.3875V16.1514L12.0515 16.1501Z" fill="#192939" fill-opacity="0.4"/>
</g>
<defs>
<clipPath id="clip0_19117_5866">
<rect width="32" height="32" fill="white" transform="translate(0 0.304688)"/>
</clipPath>
</defs>
</svg>
