<svg width="258" height="39" viewBox="0 0 258 39" fill="none" xmlns="http://www.w3.org/2000/svg">
<path d="M157.873 30.9319H141.001V2.34265H133.77V37.5687H157.873V30.9319ZM217.226 8.57102V9.18365H227.972V37.5687H235.203V9.18365H245.949V8.57102V2.34265H217.226V8.57102ZM255.791 8.57102C255.088 9.28575 254.083 9.79627 253.079 9.79627C251.974 9.79627 251.07 9.38786 250.367 8.57102C249.664 7.85629 249.263 6.83525 249.263 5.7121C249.263 4.58895 249.664 3.56791 250.367 2.85318C251.07 2.24055 251.974 1.73003 253.079 1.73003C254.184 1.73003 255.088 2.13845 255.791 2.95528C256.494 3.67001 256.895 4.69105 256.895 5.8142C256.895 6.93735 256.494 7.85629 255.791 8.57102ZM256.594 2.24055C255.69 1.32161 254.485 0.708984 253.079 0.708984C251.773 0.708984 250.468 1.32161 249.564 2.24055C248.66 3.15949 248.158 4.38474 248.158 5.8142C248.158 7.24366 248.66 8.46892 249.564 9.38786C250.468 10.3068 251.673 10.9194 253.079 10.9194C254.385 10.9194 255.69 10.3068 256.594 9.38786C257.498 8.46892 258 7.24366 258 5.8142C258 4.38474 257.397 3.15949 256.594 2.24055ZM253.882 5.40579C253.682 5.60999 253.38 5.7121 253.079 5.7121H252.075V3.97632H253.079C253.481 3.97632 253.882 4.07843 253.983 4.38474C254.083 4.58895 254.083 4.69105 254.083 4.79316C254.083 4.99737 253.983 5.20158 253.882 5.40579ZM254.786 6.01841C255.088 5.7121 255.288 5.30368 255.288 4.79316C255.288 4.48685 255.188 4.28264 255.088 3.97632C254.686 3.26159 253.882 2.95528 253.079 2.95528H250.97V8.36681H252.075V6.63104H253.179L254.385 8.46892H255.69L254.284 6.42683C254.485 6.32472 254.686 6.12052 254.786 6.01841ZM197.643 37.5687H204.874V9.18365H215.619V8.57102V2.34265H186.897V8.57102V9.18365H197.643V37.5687ZM9.23939 11.532C9.23939 7.14156 15.2651 7.95839 17.8762 8.57102C19.8848 9.08154 22.4959 9.89838 24.2032 11.1236L24.3036 11.2257L27.6178 5.7121L27.5173 5.60999C24.8058 3.3637 21.1903 2.13845 17.7758 1.62792C13.0557 0.913193 6.62826 1.62792 3.41456 5.7121C2.10899 7.34577 1.50642 9.38786 1.50642 11.532C1.50642 24.4993 20.4874 21.5383 20.4874 27.154C20.4874 28.2772 20.1861 29.2982 19.4831 30.115C17.3741 32.5655 12.7544 32.055 10.0428 31.2382C7.93383 30.6256 5.42312 29.6045 3.71584 28.073L3.61541 27.9708L0 33.6887L0.100428 33.7908C6.02569 38.9981 16.3698 40.5297 23.0985 36.1392C26.2118 34.0971 28.2203 30.9319 28.2203 27.154C28.2203 14.6973 9.23939 17.9646 9.23939 11.532ZM160.585 37.5687H185.692V30.9319H167.816V23.1719H176.754V16.2288H167.816V9.08154H185.29V2.34265H160.585V16.331H152.149V23.1719H160.585V37.5687ZM57.3445 29.094C54.8338 30.8298 52.2227 31.9529 49.1094 31.9529C42.1798 31.9529 37.3593 27.2561 37.3593 20.0067C37.3593 12.7573 42.1798 7.95839 49.1094 7.95839C51.9214 7.95839 54.7334 9.08154 57.0432 10.511L60.2569 4.89526C56.9428 2.44476 52.6244 1.21951 48.6072 1.21951C37.9619 1.21951 29.8272 8.57102 29.8272 19.9046C29.8272 31.2382 37.8614 38.5897 48.6072 38.5897C52.7248 38.5897 57.2441 37.2623 60.5582 34.5055L60.7591 34.3013L57.3445 29.094ZM74.0156 24.0909L79.5391 10.3068L85.0627 24.0909H74.0156ZM90.2849 37.5687H98.0179L83.8575 2.34265H75.1203L61.0603 37.5687H68.7933L71.4044 30.7277H87.6738L90.2849 37.5687ZM119.007 17.5562C117.601 18.7815 115.794 19.292 113.986 19.292H107.358V8.67313H113.986C116.296 8.67313 119.007 9.28575 120.112 11.532C120.514 12.2468 120.614 13.0636 120.614 13.9826C120.715 15.412 120.012 16.6373 119.007 17.5562ZM121.92 24.0909C123.025 23.5804 124.029 22.8656 124.933 21.9467C127.142 19.8025 128.146 17.1478 128.146 13.9826C128.146 12.1447 127.745 10.4089 126.941 8.77523C124.431 3.87422 118.907 2.34265 113.986 2.34265H100.127V37.5687H107.358V25.8267H114.589L122.623 37.5687H131.059L121.92 24.0909Z" fill="white"/>
</svg>
