<svg width="99" height="47" viewBox="0 0 99 47" fill="none" xmlns="http://www.w3.org/2000/svg">
<g clip-path="url(#clip0_17308_3115)">
<path d="M84.1628 23.0418L81.7078 20.5984L77.3075 24.9779L70.4983 18.2012L67.858 20.8289L77.1683 30.049L84.1628 23.0418Z" fill="white"/>
<path d="M25.1979 17.2324C23.5767 15.5727 21.2609 16.2181 19.4541 18.016L14.7758 22.6261L24.1325 31.9385L28.8108 27.2823C31.0341 25.0695 31.2194 22.4879 29.7835 21.0587C28.5868 19.8678 27.3476 19.8289 26.0798 20.3014C26.3084 19.2362 26.1231 18.1535 25.1979 17.2324ZM20.9829 20.3212C21.7703 19.5376 22.5113 19.4914 23.0674 20.0445C23.6695 20.6438 23.5307 21.4275 22.8357 22.165L21.0732 23.9785L19.1827 22.0858L20.9829 20.3209V20.3212ZM26.8655 25.3L24.6076 27.5174L22.7059 25.6136L24.9199 23.4101C25.6609 22.6726 26.4022 22.6726 27.0044 23.2719C27.6065 23.825 27.4677 24.7011 26.8655 25.3004V25.3Z" fill="white"/>
<path d="M36.2567 28.3317L23.1252 41.4014L5.37295 23.7331L23.1172 6.0732L36.272 19.1655L38.9702 16.4801L23.1287 0.713867L0 23.7331L23.1203 46.7441L38.9384 31.0008L36.2567 28.3317Z" fill="white"/>
<path d="M49.145 15.1582L40.9929 23.2717L43.494 25.7151L46.25 22.972L53.1287 29.8182L55.7226 27.2366L48.8439 20.3905L51.6 17.6474L49.145 15.1582Z" fill="white"/>
<path d="M38.9548 11.1472L41.6411 13.8208L49.423 6.07604L62.5779 19.1686L65.2642 16.4947L49.423 0.728516L38.9548 11.1472Z" fill="white"/>
<path d="M49.4 41.4121L41.6411 33.6903L38.9548 36.3642L49.4011 46.7589L65.29 30.95L62.6026 28.2754L49.4 41.4121Z" fill="white"/>
<path d="M75.7589 0.708984L65.314 11.1047L67.9979 13.7759L75.7564 6.05408L93.5191 23.7328L75.7787 41.3892L67.9972 33.6445L65.3105 36.3181L75.7787 46.7367L98.8924 23.7328L75.7589 0.708984Z" fill="white"/>
</g>
<defs>
<clipPath id="clip0_17308_3115">
<rect width="99" height="46" fill="white" transform="translate(0 0.708984)"/>
</clipPath>
</defs>
</svg>
