<svg width="254" height="45" viewBox="0 0 254 45" fill="none" xmlns="http://www.w3.org/2000/svg">
<g clip-path="url(#clip0_17308_3106)">
<path d="M189.126 16.7734V14.9482H183.711V24.0095H185.667V20.5404H188.79V18.7669H185.667V16.7734H189.126ZM193.718 24.2167C195.881 24.2167 197.501 22.6245 197.501 20.5145C197.501 18.4045 195.881 16.8252 193.718 16.8252C191.554 16.8252 189.935 18.4045 189.935 20.5145C189.935 22.6245 191.554 24.2167 193.718 24.2167ZM193.718 22.4303C192.63 22.4303 191.852 21.6536 191.852 20.5145C191.852 19.3883 192.63 18.5987 193.718 18.5987C194.806 18.5987 195.583 19.3883 195.583 20.5145C195.583 21.6536 194.806 22.4303 193.718 22.4303ZM202.441 16.9806C201.534 16.9806 200.912 17.2653 200.407 17.8867L200.07 17.0194H198.865V24.0095H200.757V20.385C200.757 19.2459 201.171 18.7669 202.234 18.7669H203.063V16.9806H202.441ZM214.29 14.9482H212.191L210.092 18.5857L208.007 14.9482H205.921L209.082 20.3462V24.0095H211.09V20.3591L214.29 14.9482ZM217.529 24.2167C219.693 24.2167 221.312 22.6245 221.312 20.5145C221.312 18.4045 219.693 16.8252 217.529 16.8252C215.365 16.8252 213.746 18.4045 213.746 20.5145C213.746 22.6245 215.365 24.2167 217.529 24.2167ZM217.529 22.4303C216.441 22.4303 215.663 21.6536 215.663 20.5145C215.663 19.3883 216.441 18.5987 217.529 18.5987C218.617 18.5987 219.395 19.3883 219.395 20.5145C219.395 21.6536 218.617 22.4303 217.529 22.4303ZM225.863 24.2167C227.846 24.2167 229.154 22.9481 229.154 21.0582V17.0194H227.263V20.851C227.263 21.8348 226.744 22.4303 225.863 22.4303C224.995 22.4303 224.464 21.8478 224.464 20.851V17.0194H222.573V21.0582C222.573 22.9481 223.894 24.2167 225.863 24.2167ZM230.695 24.0095H232.703V21.9902H230.695V24.0095ZM189.126 32.3071V30.4819H183.711V39.5432H185.667V36.074H188.79V34.3006H185.667V32.3071H189.126ZM193.718 39.7503C195.881 39.7503 197.501 38.1581 197.501 36.0481C197.501 33.9381 195.881 32.3589 193.718 32.3589C191.554 32.3589 189.935 33.9381 189.935 36.0481C189.935 38.1581 191.554 39.7503 193.718 39.7503ZM193.718 37.964C192.63 37.964 191.852 37.1873 191.852 36.0481C191.852 34.9219 192.63 34.1323 193.718 34.1323C194.806 34.1323 195.583 34.9219 195.583 36.0481C195.583 37.1873 194.806 37.964 193.718 37.964ZM202.441 32.5142C201.534 32.5142 200.912 32.799 200.407 33.4204L200.07 32.5531H198.865V39.5432H200.757V35.9187C200.757 34.7796 201.171 34.3006 202.234 34.3006H203.063V32.5142H202.441ZM208.985 37.731V30.4819H207.028V39.5432H212.47V37.731H208.985ZM213.668 31.621H215.547V29.8735H213.668V31.621ZM213.668 39.5432H215.56V32.5531H213.668V39.5432ZM221.65 32.6566H219.849V32.0612C219.849 31.5693 220.108 31.3104 220.614 31.3104H221.637V29.8217H220.238C218.761 29.8217 218.01 30.6761 218.01 32.0223V32.6566H216.792V34.21H217.997V39.5432H219.888V34.21H221.65V32.6566ZM229.402 36.0352C229.402 34.0158 227.925 32.3589 225.774 32.3589C223.701 32.3589 222.146 33.9511 222.146 36.0481C222.146 38.1452 223.714 39.7503 225.774 39.7503C227.406 39.7503 228.741 38.7795 229.246 37.252H227.264C226.979 37.7568 226.435 38.0675 225.774 38.0675C224.854 38.0675 224.232 37.5368 224.064 36.5789H229.363C229.389 36.3976 229.402 36.2164 229.402 36.0352ZM225.774 33.977C226.629 33.977 227.238 34.443 227.51 35.2973H224.116C224.336 34.4689 224.932 33.977 225.774 33.977ZM230.568 39.5432H232.576V37.5238H230.568V39.5432Z" fill="white"/>
<path d="M74.2775 0.708984H67.4245L67.4108 38.2234L76.122 38.1682L76.0737 2.13087C76.0737 1.24047 75.2308 0.708984 74.2775 0.708984Z" fill="white"/>
<path d="M176.69 4.35156L175.357 7.49906L173.927 4.35156H173.126V9.15562H173.872V6.11858L174.928 8.47229H175.703L176.704 6.08407V9.15562H177.499V4.35156H176.684H176.69ZM168.408 4.35156V5.00729H170.072V9.15562H170.915V5.00729H172.566V4.35156H168.408Z" fill="white"/>
<path d="M155.094 23.7431C155.066 28.2779 151.322 31.6601 146.251 31.6601C141.181 31.6601 137.471 28.271 137.506 23.7431C137.533 19.2151 141.285 15.8329 146.362 15.8329C151.44 15.8329 155.128 19.2081 155.101 23.7431M162.458 9.31018H156.282V12.0711C153.505 9.84856 149.844 8.53711 145.699 8.53711C135.986 8.53711 128.718 15.0392 128.663 23.7431C128.601 32.4815 135.785 39.0387 145.498 39.0387C149.574 39.0387 153.194 37.7687 155.984 35.5945L155.957 38.1759H163.688V10.3732C163.688 9.78644 163.08 9.31018 162.465 9.31018" fill="white"/>
<path d="M21.1815 23.7266L14.5358 37.7592H23.4751L29.0638 24.9967C26.335 24.686 23.7031 24.2581 21.1815 23.7266Z" fill="white"/>
<path d="M66.1529 16.0599C66.1529 14.3551 64.7021 12.9745 62.9061 12.9745C62.5261 12.9745 62.1461 13.0366 61.8077 13.154C54.6576 16.2186 45.6839 18.4343 35.8467 19.2557C34.4028 19.3731 32.9729 19.4628 31.5497 19.5249L36.869 7.22483L41.2834 17.468C45.6148 16.5431 49.6907 15.3075 53.4211 13.8235L48.0189 2.26893C47.6528 1.50966 46.6993 0.743496 45.7461 0.708984H32.0748L23.2875 19.5042C11.9235 18.952 5.35385 17.8614 0 12.1945C6.2381 19.9183 14.0789 23.0244 32.1577 23.8733C36.2335 24.0597 40.185 23.9769 43.9499 23.6595L50.2226 38.2234H64.8265L56.965 21.4161C59.6937 20.6707 62.2221 19.7803 64.488 18.7656C65.4965 18.2411 66.1597 17.247 66.1597 16.0737" fill="white"/>
<path d="M126.145 38.1263L126.263 20.0214C126.304 13.257 121.911 8.57031 115.604 8.57031C111.728 8.57031 107.825 10.3856 105.725 13.188C103.977 10.2821 101.2 8.57031 97.3245 8.57031C93.7323 8.57031 90.3887 10.2476 88.2056 12.836L87.1832 10.4271C86.8655 9.6885 86.2852 9.26055 85.6565 9.26055H81.0764V38.1263H88.9862L89.083 22.5131C89.1106 17.9921 91.3558 15.4244 95.0792 15.4244C98.0291 15.4244 99.5697 17.4537 99.542 21.3121L99.4936 38.1402H107.473L107.569 22.5131C107.597 17.9921 109.794 15.4244 113.476 15.4244C116.46 15.4244 118.042 17.4537 118.021 21.3121L118.063 38.0849L126.152 38.1332L126.145 38.1263Z" fill="white"/>
</g>
<defs>
<clipPath id="clip0_17308_3106">
<rect width="254" height="44" fill="white" transform="translate(0 0.708984)"/>
</clipPath>
</defs>
</svg>
