<svg width="143" height="45" viewBox="0 0 143 45" fill="none" xmlns="http://www.w3.org/2000/svg">
<g clip-path="url(#clip0_17308_3130)">
<path fill-rule="evenodd" clip-rule="evenodd" d="M139.534 3.46338H140.265C140.372 3.46338 140.476 3.45788 140.576 3.44908C140.664 3.4419 140.749 3.41839 140.828 3.37978L141 3.22028C141.045 3.13177 141.066 3.03324 141.061 2.93428C141.067 2.83809 141.044 2.74234 140.995 2.65928L140.817 2.50418C140.737 2.46651 140.652 2.44305 140.563 2.43488C140.465 2.42555 140.366 2.42078 140.266 2.42058H139.534V3.46338ZM140.146 3.85498H139.534V5.31798H139.09V2.02898H140.419C140.801 2.02898 141.076 2.10708 141.249 2.26108C141.42 2.41618 141.506 2.64168 141.506 2.94198C141.509 3.07056 141.487 3.19853 141.439 3.31818C141.399 3.42022 141.336 3.51195 141.255 3.58658C141.175 3.65961 141.084 3.7184 140.984 3.76038C140.881 3.80426 140.773 3.83601 140.663 3.85498L141.675 5.31798H141.128L140.146 3.85498ZM137.802 3.67898C137.802 4.00238 137.864 4.30598 137.988 4.58868C138.11 4.87138 138.279 5.11668 138.494 5.32568C138.71 5.53688 138.959 5.70188 139.248 5.82288C139.539 5.94278 139.846 6.00328 140.177 6.00328C140.805 6.00557 141.409 5.76258 141.858 5.32678C142.071 5.11778 142.242 4.87138 142.366 4.58868C142.493 4.30598 142.555 4.00238 142.555 3.67898C142.555 3.35668 142.493 3.05418 142.366 2.77258C142.246 2.49592 142.074 2.24463 141.858 2.03228C141.409 1.59567 140.806 1.35021 140.177 1.34808C139.858 1.34669 139.542 1.41034 139.249 1.53508C138.961 1.65608 138.71 1.82328 138.494 2.03228C138.278 2.24377 138.106 2.49531 137.988 2.77258C137.864 3.0586 137.8 3.3673 137.802 3.67898ZM137.359 3.67238C137.359 3.29178 137.434 2.93318 137.582 2.59878C137.871 1.93589 138.408 1.41024 139.08 1.13248C139.418 0.987284 139.786 0.914684 140.178 0.914684C140.566 0.914684 140.932 0.987284 141.271 1.13248C141.946 1.40875 142.486 1.9345 142.778 2.59878C142.926 2.93318 143 3.29178 143 3.67238C143 4.05408 142.926 4.41158 142.778 4.74818C142.486 5.41372 141.946 5.94166 141.271 6.22218C140.925 6.36773 140.552 6.44112 140.177 6.43778C139.786 6.43778 139.418 6.36628 139.079 6.22108C138.745 6.08311 138.441 5.88129 138.185 5.62708C137.93 5.37404 137.725 5.07547 137.582 4.74708C137.433 4.40811 137.356 4.04204 137.359 3.67238ZM99.8195 14.1895H89.3307V20.9809L99.8195 20.9831C102.879 20.9831 105.191 20.3825 105.191 17.5192C105.191 14.9892 103.085 14.1895 99.8195 14.1895ZM84.493 14.1895V10.2636H99.6865C102.846 10.2636 104.239 9.49688 104.239 7.46628C104.239 5.40268 102.846 4.63708 99.6865 4.63708H84.4919V0.708984H99.3795C105.19 0.708984 109.06 2.30618 109.06 6.90198C109.06 9.96328 107.533 11.0974 106.205 11.9268C107.945 12.6605 110.017 14.7241 110.017 17.8877C110.017 22.4472 106.308 24.909 100.295 24.909H84.493V14.1895ZM136.608 24.9068L134.024 19.3507L132.111 15.2906L126.961 4.50508L121.839 15.1993L119.796 19.3507L117.174 24.9068H112.041L124.208 0.708984H129.711L141.705 24.9068H136.608ZM73.533 24.909H78.3562V0.708984H73.5319L73.533 24.909ZM43.0308 24.9068H55.1248C63.2803 24.9068 68.9892 20.9171 68.9892 12.6605C68.9892 3.93748 62.7371 0.711184 54.9242 0.711184H43.0308V24.9068ZM47.8529 20.8478V4.77128H52.7482C60.8382 4.77128 64.1638 6.80078 64.1638 12.7254C64.1638 18.3849 60.9712 20.8456 52.7482 20.8456H47.8551L47.8529 20.8478ZM10.9678 24.9068H15.587V6.80298L32.7803 24.909H37.2022V0.708984H32.5752V18.1858L16.0648 0.708984H10.9678V24.9068ZM0 24.909H4.82653V0.708984H0V24.909ZM4.12372 33.7827C3.96652 33.7509 3.80828 33.7245 3.64927 33.7035C3.5019 33.6839 3.35343 33.6736 3.20475 33.6727C2.43654 33.6727 1.86898 33.9114 1.50205 34.3877C1.13402 34.864 0.948899 35.6142 0.948899 36.6394V40.9712H0V32.9511H0.795923L0.934488 34.2062C1.41448 33.2965 2.22925 32.8422 3.37325 32.8422C3.53953 32.8422 3.70359 32.8543 3.87209 32.8796C4.03947 32.906 4.18026 32.9357 4.29333 32.9665L4.12372 33.7827ZM6.25653 37.2994C6.2654 37.8527 6.3175 38.3224 6.4095 38.7041C6.50262 39.0858 6.66447 39.3993 6.89615 39.6468C7.12229 39.8932 7.42935 40.0703 7.81401 40.1803C8.19645 40.2903 8.67977 40.3453 9.26396 40.3453C9.57989 40.3453 9.91799 40.3222 10.276 40.2749C10.6319 40.2276 10.9412 40.1726 11.1961 40.1077L11.0742 40.8777C10.7772 40.9764 10.4707 41.0446 10.1597 41.0812C9.80175 41.1333 9.44057 41.1602 9.07884 41.1615C8.38268 41.1615 7.79516 41.0801 7.31517 40.9173C6.83518 40.7545 6.4483 40.5147 6.15676 40.1957C5.85184 39.852 5.63608 39.4397 5.52822 38.9945C5.39964 38.5127 5.33645 37.9473 5.33645 37.2994V36.6867C5.33645 36.0916 5.39742 35.5504 5.52157 35.0697C5.64351 34.589 5.8375 34.1743 6.10355 33.8311C6.37071 33.4846 6.71102 33.2195 7.13226 33.0369C7.54907 32.8554 8.05788 32.7619 8.64873 32.7619C9.17085 32.7619 9.6198 32.8433 9.99892 33.0061C10.3769 33.1689 10.6895 33.3944 10.9356 33.6815C11.1806 33.9686 11.358 34.3085 11.471 34.7023C11.583 35.0928 11.6406 35.5262 11.6406 35.997V36.4524C11.6406 36.7659 11.5985 36.9859 11.5098 37.1102C11.4223 37.2367 11.2305 37.2994 10.9356 37.2994H6.25653ZM8.58776 33.5792C8.19978 33.5792 7.85946 33.632 7.56792 33.7365C7.27637 33.8399 7.03361 34.0104 6.8385 34.2469C6.64451 34.4812 6.49819 34.787 6.40285 35.1654C6.30419 35.5416 6.25653 36.0058 6.25653 36.5624H10.7649V36.0124C10.7649 35.2072 10.5931 34.6 10.2439 34.1919C9.89693 33.7838 9.34488 33.5792 8.58776 33.5792ZM13.0817 32.95H14.1404L16.7631 39.9823L19.4026 32.95H20.4313L17.272 40.9723H16.2255L13.0817 32.95ZM22.8079 29.8425C23.268 29.8425 23.4986 30.079 23.4986 30.5498C23.4986 31.0085 23.268 31.2395 22.8079 31.2395C22.3568 31.2395 22.134 31.0085 22.134 30.5498C22.134 30.079 22.3568 29.8425 22.8079 29.8425ZM22.3479 40.9723V32.95H23.299V40.9723H22.3479ZM27.5159 33.7827V38.4291C27.5159 38.8053 27.5513 39.1166 27.6167 39.363C27.6821 39.6083 27.7852 39.803 27.9238 39.9427C28.0655 40.0865 28.2454 40.1875 28.4426 40.2342C28.6532 40.287 28.896 40.3134 29.172 40.3134C29.346 40.3134 29.5179 40.3002 29.6875 40.2738C29.856 40.2474 30.0167 40.2188 30.1697 40.1869L30.0311 40.9569C29.6709 41.0785 29.2919 41.1366 28.9115 41.1285C28.5335 41.1285 28.1987 41.0845 27.9072 40.9965C27.6278 40.9147 27.3758 40.7597 27.1778 40.5477C26.9678 40.3089 26.8184 40.0238 26.7421 39.7161C26.6435 39.3707 26.5958 38.9373 26.5958 38.4137V33.7827H25.015L25.1547 32.9511H26.5958V30.8622L27.5159 30.6906V32.9511H30.1386L29.9857 33.7827H27.5159ZM31.6263 38.5072C31.6263 37.6404 31.879 37.0024 32.3856 36.5998C32.8933 36.1972 33.6638 35.9948 34.6947 35.9948C35.2268 35.9948 35.6924 36.0597 36.0914 36.184C36.4905 36.3094 36.7965 36.4986 37.0115 36.7494V35.9651C37.0115 35.1071 36.8075 34.4944 36.4051 34.1281C36.0005 33.7607 35.3798 33.5781 34.5406 33.5781C34.1825 33.5781 33.809 33.6045 33.421 33.6573C33.033 33.7101 32.6738 33.7728 32.3468 33.8465L32.4998 33.0765C33.193 32.8741 33.9112 32.7686 34.6337 32.763C35.1248 32.763 35.5682 32.818 35.9684 32.928C36.3663 33.038 36.7111 33.2129 37.0037 33.4527C37.2931 33.6925 37.5181 34.0082 37.6777 34.3943C37.8362 34.7815 37.9161 35.249 37.9161 35.7913V40.9723H37.1035L37.0259 40.0307C36.7599 40.4157 36.4218 40.6962 36.0127 40.87C35.6048 41.0427 35.1137 41.1296 34.5406 41.1296C33.5784 41.1296 32.8534 40.9349 32.3634 40.5488C31.8724 40.1616 31.6263 39.5434 31.6263 38.6964V38.5072ZM32.5464 38.6018C32.5464 39.209 32.7038 39.649 33.0153 39.9196C33.3257 40.1913 33.8555 40.3277 34.6016 40.3277C34.9796 40.3355 35.3568 40.2884 35.7212 40.188C36.0282 40.0934 36.2788 39.9647 36.4661 39.803C36.6546 39.6402 36.7931 39.4466 36.8796 39.2222C36.9683 38.9967 37.0104 38.7536 37.0104 38.4929V38.3653C37.0104 38.0518 36.9539 37.7911 36.8408 37.581C36.7299 37.372 36.5747 37.2048 36.3808 37.0783C36.1703 36.9471 35.9367 36.8568 35.6924 36.8121C35.4091 36.7593 35.1214 36.7335 34.8333 36.7351H34.5894C34.1881 36.7351 33.8577 36.7725 33.5972 36.8517C33.3367 36.9287 33.1261 37.0442 32.9709 37.1971C32.8122 37.3469 32.6973 37.5366 32.6384 37.746C32.5735 37.9896 32.5426 38.2409 32.5464 38.4929V38.6018ZM40.4457 40.9723V29.309H41.3813V40.9723H40.4457ZM44.4497 29.8425C44.9098 29.8425 45.1403 30.079 45.1403 30.5498C45.1403 31.0085 44.9098 31.2395 44.4497 31.2395C43.9986 31.2395 43.7757 31.0085 43.7757 30.5498C43.7757 30.079 43.9986 29.8425 44.4497 29.8425ZM43.9897 40.9723V32.95H44.9408V40.9723H43.9897ZM48.1311 40.1869H53.2381L53.114 40.9712H46.9949V40.2815L51.9489 33.7365H47.1013L47.2399 32.9511H53.084V33.6408L48.1289 40.1869H48.1311ZM55.7234 29.8425C56.1824 29.8425 56.4141 30.079 56.4141 30.5498C56.4141 31.0085 56.1824 31.2395 55.7234 31.2395C55.2723 31.2395 55.0484 31.0085 55.0484 30.5498C55.0484 30.079 55.2723 29.8425 55.7234 29.8425ZM55.2634 40.9723V32.95H56.2145V40.9723H55.2634ZM58.8218 40.9723V32.95H59.6199L59.7419 34.0797C59.978 33.6837 60.3216 33.3636 60.7772 33.1227C61.2317 32.8829 61.7904 32.7619 62.4566 32.7619C63.3678 32.7619 64.0618 33.0028 64.544 33.4846C65.0218 33.9664 65.2623 34.6836 65.2623 35.6351V40.9723H64.3256V36.1059C64.3256 35.216 64.1693 34.5769 63.8534 34.1919C63.5352 33.8036 62.9887 33.6089 62.2105 33.6089C61.3725 33.6089 60.7539 33.8245 60.3549 34.2535C59.9558 34.6825 59.7585 35.3469 59.7585 36.2467V40.9723H58.8218ZM74.1594 40.815C74.1594 41.4123 74.0928 41.9513 73.9609 42.432C73.8418 42.882 73.6279 43.3019 73.3335 43.664C73.0431 44.0039 72.6761 44.2624 72.2272 44.4406C71.776 44.6188 71.2384 44.709 70.6165 44.709C69.6743 44.709 68.7542 44.5671 67.8552 44.2833L68.0547 43.4836C68.4959 43.609 68.9149 43.7036 69.3195 43.7652C69.7264 43.8279 70.1709 43.8598 70.6631 43.8598C71.1519 43.8598 71.5643 43.7861 71.8891 43.6409C72.2161 43.4935 72.4799 43.2801 72.6795 42.9963C72.8812 42.7147 73.0209 42.3704 73.1029 41.9678C73.1839 41.5652 73.2227 41.1076 73.2227 40.5961V39.6699C73.1162 39.8424 72.9905 40.0026 72.848 40.1473C72.6887 40.3077 72.5077 40.4454 72.3103 40.5565C72.103 40.6775 71.8525 40.771 71.5698 40.8381C71.2377 40.9114 70.898 40.9453 70.5578 40.9393C70.1066 40.9393 69.6953 40.8755 69.3295 40.7446C68.962 40.613 68.634 40.3913 68.3762 40.1C68.1123 39.8019 67.9028 39.4158 67.7554 38.9395C67.608 38.4632 67.5337 37.8736 67.5337 37.1729V36.6394C67.5337 35.9794 67.6202 35.4107 67.7964 34.9289C67.9682 34.4471 68.2154 34.0445 68.5369 33.7189C68.8611 33.3958 69.2543 33.1492 69.6876 32.9973C70.1647 32.8351 70.6664 32.7555 71.1708 32.7619C71.7505 32.7619 72.2937 32.8279 72.7959 32.9599C73.2947 33.0897 73.7514 33.269 74.1594 33.4989V40.815ZM68.4848 36.9848C68.4848 37.4886 68.5203 37.9341 68.5923 38.3268C68.6622 38.7184 68.7897 39.0495 68.967 39.3168C69.1466 39.583 69.3805 39.7843 69.6731 39.9218C69.9647 40.0571 70.3316 40.1253 70.7706 40.1253C71.5975 40.1253 72.2139 39.902 72.6163 39.4576C73.0231 39.0121 73.2227 38.2993 73.2227 37.3137V34.0346C72.9439 33.8903 72.6488 33.7796 72.3436 33.7046C71.9731 33.6241 71.5943 33.5871 71.2151 33.5946C70.2839 33.5946 69.5956 33.8432 69.1521 34.3393C68.7065 34.8365 68.4848 35.656 68.4848 36.7967V36.9848ZM80.7562 40.9723V29.309H81.6918V40.9723H80.7562ZM84.758 29.8425C85.218 29.8425 85.4486 30.079 85.4486 30.5498C85.4486 31.0085 85.218 31.2395 84.758 31.2395C84.3068 31.2395 84.084 31.0085 84.084 30.5498C84.084 30.079 84.3068 29.8425 84.758 29.8425ZM84.298 40.9723V32.95H85.2513V40.9723H84.298ZM87.1657 32.95H88.2243L90.8471 39.9823L93.4854 32.95H94.5164L91.3548 40.9723H90.3095L87.1657 32.95ZM96.7367 37.2994C96.7478 37.8527 96.7977 38.3224 96.8897 38.7041C96.9839 39.0858 97.1447 39.3993 97.3764 39.6468C97.6047 39.8932 97.9118 40.0703 98.2964 40.1803C98.6778 40.2903 99.1611 40.3453 99.7453 40.3453C100.061 40.3453 100.398 40.3222 100.758 40.2749C101.114 40.2276 101.421 40.1726 101.679 40.1077L101.554 40.8777C101.317 40.9624 101.015 41.0317 100.64 41.0812C100.266 41.1351 99.9082 41.1615 99.559 41.1615C98.8629 41.1615 98.2754 41.0801 97.7954 40.9173C97.3154 40.7545 96.9285 40.5147 96.637 40.1957C96.3454 39.8767 96.1381 39.4774 96.0095 38.9945C95.8798 38.5127 95.8167 37.9473 95.8167 37.2994V36.6867C95.8167 36.0916 95.8776 35.5504 96.0018 35.0697C96.1237 34.589 96.3177 34.1743 96.5838 33.8311C96.8509 33.4846 97.1912 33.2195 97.6125 33.0369C98.0293 32.8554 98.5381 32.7619 99.1289 32.7619C99.6511 32.7619 100.1 32.8433 100.479 33.0061C100.841 33.1556 101.162 33.3868 101.418 33.6812C101.673 33.9757 101.856 34.3253 101.951 34.7023C102.065 35.0928 102.121 35.5262 102.121 35.997V36.4524C102.121 36.7659 102.079 36.9859 101.992 37.1102C101.905 37.2367 101.711 37.2994 101.416 37.2994H96.7367ZM99.0702 33.5792C98.6822 33.5792 98.3397 33.632 98.0481 33.7365C97.7632 33.8373 97.5117 34.0139 97.3209 34.2469C97.1247 34.4812 96.9806 34.787 96.8831 35.1654C96.7844 35.5416 96.7367 36.0058 96.7367 36.5624H101.248V36.0124C101.248 35.2072 101.073 34.6 100.725 34.1919C100.379 33.7838 99.8273 33.5792 99.0702 33.5792ZM106.262 37.2048C105.455 37.0893 104.884 36.8638 104.552 36.5228C104.222 36.1818 104.053 35.6978 104.053 35.0708V35.007C104.053 34.6308 104.136 34.303 104.301 34.0258C104.463 33.7497 104.687 33.5198 104.973 33.3361C105.259 33.1524 105.603 33.0171 105.995 32.9269C106.388 32.8389 106.82 32.7927 107.29 32.7927C107.729 32.7927 108.137 32.829 108.51 32.895C108.884 32.9654 109.22 33.0446 109.515 33.1392L109.331 33.9235C109.025 33.8252 108.711 33.7494 108.394 33.6969C107.983 33.6338 107.568 33.6043 107.152 33.6089C106.855 33.6089 106.576 33.6342 106.316 33.6815C106.056 33.7288 105.828 33.8047 105.635 33.9081C105.446 34.0063 105.286 34.1524 105.173 34.3316C105.062 34.5098 105.004 34.7309 105.004 34.9916C105.004 35.1896 105.025 35.3645 105.067 35.5086C105.105 35.6528 105.182 35.7836 105.291 35.8859C105.397 35.9915 105.542 36.0784 105.725 36.1444C105.912 36.2148 106.146 36.2698 106.431 36.3105L107.676 36.4832C108.369 36.5778 108.887 36.8011 109.231 37.1498C109.572 37.4996 109.744 38.0166 109.744 38.6964V38.791C109.744 39.5544 109.464 40.1352 108.901 40.5334C108.339 40.9305 107.556 41.1296 106.554 41.1296C106.084 41.1296 105.634 41.0955 105.204 41.0273C104.804 40.9661 104.41 40.8742 104.024 40.7523L104.192 39.9834C104.58 40.0989 104.96 40.1814 105.336 40.2353C105.708 40.2881 106.124 40.3123 106.584 40.3123C107.31 40.3123 107.859 40.1935 108.226 39.9515C108.594 39.7117 108.779 39.3146 108.779 38.7591C108.779 38.5699 108.763 38.4016 108.732 38.2487C108.701 38.0982 108.632 37.9579 108.533 37.8406C108.417 37.7104 108.273 37.6087 108.111 37.5436C107.878 37.4503 107.632 37.3892 107.382 37.3621L106.262 37.2048Z" fill="white"/>
</g>
<defs>
<clipPath id="clip0_17308_3130">
<rect width="143" height="44" fill="white" transform="translate(0 0.708984)"/>
</clipPath>
</defs>
</svg>
