<svg width="178" height="47" viewBox="0 0 178 47" fill="none" xmlns="http://www.w3.org/2000/svg">
<g clip-path="url(#clip0_17308_3090)">
<path d="M23.6863 44.8311C12.3761 43.0568 4.44116 32.4699 5.92155 21.1732C7.40194 9.81738 17.7647 2.0694 29.0749 3.84375C33.1015 4.49434 36.7137 6.20955 39.6153 8.75277C36.1215 4.79007 31.3251 2.01026 25.818 1.18223C13.3827 -0.769549 2.01331 7.80646 0.355275 20.2269C-1.24355 32.7064 7.46116 44.358 19.8965 46.2506C25.1074 47.0786 30.2 46.014 34.4043 43.5891C31.1474 44.9494 27.4761 45.4226 23.6863 44.8311Z" fill="white"/>
<path d="M40.2075 36.6692C32.5687 42.4062 21.6138 40.691 15.7514 32.8839C9.88907 25.0768 11.3102 14.0758 18.9491 8.39792C21.673 6.38699 24.8114 5.26324 28.0091 5.02666C23.6863 4.73094 19.2451 5.91384 15.4553 8.69364C7.10593 15.0221 5.5071 27.0285 11.9616 35.6637C18.4161 44.2397 30.4369 46.1323 38.8455 39.8038C42.3985 37.1423 44.7079 33.4753 45.7146 29.4535C44.6487 32.2333 42.7538 34.7174 40.2075 36.6692Z" fill="white"/>
<path d="M44.5302 21.9416C43.5235 29.8078 36.2992 35.19 28.4235 34.0071C20.5478 32.8242 15.0408 25.4311 16.0474 17.5649C16.4027 14.785 17.587 12.2418 19.2451 10.29C16.5804 12.6558 14.7447 15.9679 14.2709 19.8124C13.1459 28.4475 19.2451 36.5504 27.8313 37.9107C36.536 39.2119 44.4117 33.2382 45.596 24.6031C46.0698 20.9361 45.2408 17.3874 43.5235 14.4302C44.4709 16.7368 44.8855 19.3392 44.5302 21.9416Z" fill="white"/>
<path d="M68.1572 34.5404C67.5651 35.0135 66.6768 35.3684 65.5517 35.6641C64.4266 35.9599 63.3015 36.1373 62.1764 36.1373C60.7553 36.1373 59.3933 35.9007 58.1498 35.3684C56.9062 34.8361 55.8404 34.0672 54.8929 33.0618C53.9455 32.0563 53.2349 30.7551 52.7019 29.2765C52.169 27.7979 51.9321 26.0235 51.9321 24.0717C51.9321 22.12 52.2282 20.2865 52.7611 18.6896C53.2941 17.0926 54.0639 15.7323 55.0113 14.6677C55.8996 13.6031 57.0247 12.7159 58.2682 12.1245C59.5117 11.533 60.8737 11.2373 62.2949 11.2373C63.42 11.2373 64.4859 11.4147 65.4925 11.7105C66.4992 12.0062 67.269 12.3611 67.6835 12.7159L66.4992 14.4903C65.9662 14.1945 65.4333 13.8988 64.7819 13.7214C64.1306 13.4848 63.3015 13.4257 62.2949 13.4257C61.1698 13.4257 60.1039 13.6622 59.2157 14.0763C58.2682 14.4903 57.4984 15.1409 56.847 16.028C56.1957 16.9152 55.6627 17.9798 55.3074 19.281C54.9521 20.5822 54.7745 22.0608 54.7745 23.776C54.7745 25.4912 54.9521 27.029 55.2482 28.3302C55.6035 29.6314 56.0772 30.696 56.7286 31.5831C57.38 32.4703 58.1498 33.1209 59.1564 33.5941C60.1039 34.0081 61.229 34.2447 62.5317 34.2447C63.5976 34.2447 64.4859 34.1264 65.1372 33.8898C65.7886 33.6532 66.44 33.3575 66.9729 33.0026L68.1572 34.5404Z" fill="white"/>
<path d="M72.3023 14.5493C72.3023 14.1353 72.3023 13.6622 72.2431 13.2482C72.1839 12.8341 72.1839 12.361 72.1246 11.7695H75.0854C75.0262 12.0653 75.0262 12.361 75.0262 12.5976C75.0262 12.8341 75.0262 13.0707 74.967 13.2482C74.967 13.4847 74.9078 13.6622 74.9078 13.8987V14.5493V33.5348H81.7768H82.3097C82.4874 33.5348 82.7243 33.5348 82.9019 33.5348C83.1388 33.5348 83.3756 33.4757 83.6717 33.4757C83.9086 33.4757 84.2046 33.4165 84.5599 33.4165L83.3164 35.9006C82.665 35.8415 82.1321 35.8415 81.7176 35.8415C81.2439 35.8415 80.8294 35.8415 80.4148 35.8415H72.0654C72.1246 35.3683 72.1839 34.8952 72.2431 34.422C72.3023 33.9488 72.3023 33.5348 72.3023 33.18V14.5493Z" fill="white"/>
<path d="M104.634 33.9494C104.456 33.4171 104.279 32.9439 104.16 32.5299L97.0544 11.7109H94.0345L86.7509 32.5299C86.6325 32.8256 86.5141 33.1214 86.4548 33.2988C86.3364 33.5354 86.2772 33.772 86.1588 34.0677C86.0403 34.3043 85.9219 34.5408 85.8035 34.8366C85.685 35.1323 85.5666 35.428 85.4482 35.7237H88.6458C88.705 35.3689 88.7643 35.0732 88.8235 34.7774C88.8827 34.4817 88.9419 34.186 89.0603 33.9494C89.1195 33.6537 89.1788 33.4171 89.238 33.1214C89.2972 32.8848 89.4156 32.5891 89.5341 32.2342L90.4815 29.0404H100.134L101.14 32.2342C101.318 32.8848 101.496 33.5354 101.673 34.0677C101.851 34.6 101.969 35.1914 102.088 35.7237H105.463C105.108 35.0732 104.871 34.4817 104.634 33.9494ZM91.3105 26.852L94.0937 18.2169C94.1529 17.9211 94.2713 17.6254 94.3897 17.2114C94.5082 16.7974 94.6266 16.4425 94.745 16.0285C94.8635 15.6145 94.9819 15.1413 95.1595 14.7273C95.278 14.3133 95.4556 13.8993 95.5741 13.4853C95.6925 14.195 95.9294 15.023 96.2254 15.9694C96.4623 16.9157 96.6992 17.6846 96.936 18.276L99.6599 26.9112H91.3105V26.852Z" fill="white"/>
<path d="M123.109 28.7446C123.109 29.6909 122.932 30.6372 122.517 31.5244C122.103 32.4116 121.511 33.1805 120.741 33.8902C119.971 34.5999 119.023 35.1323 117.839 35.5463C116.714 35.9603 115.352 36.1969 113.872 36.1969C113.22 36.1969 112.569 36.1377 111.858 36.0786C111.148 35.9603 110.496 35.842 109.845 35.6646C109.194 35.5463 108.542 35.3097 107.95 35.1323C107.358 34.8957 106.825 34.6591 106.411 34.4225L107.417 32.1159C107.95 32.4116 108.424 32.6482 108.957 32.8847C109.49 33.1213 110.023 33.2988 110.556 33.4762C111.089 33.6536 111.622 33.7719 112.214 33.8311C112.806 33.8902 113.398 33.9494 114.049 33.9494C114.938 33.9494 115.767 33.8311 116.536 33.6536C117.247 33.4762 117.898 33.1213 118.372 32.7665C118.905 32.4116 119.26 31.9384 119.556 31.347C119.852 30.7555 119.971 30.1641 119.971 29.3952C119.971 28.8629 119.852 28.3897 119.675 27.9166C119.497 27.4434 119.201 27.0294 118.846 26.6154C118.491 26.2605 118.017 25.9057 117.484 25.6099C116.951 25.3142 116.3 25.0776 115.648 24.841L112.983 24.0722C112.036 23.8356 111.207 23.4807 110.496 23.1258C109.786 22.771 109.194 22.2978 108.72 21.8247C108.246 21.3515 107.891 20.8192 107.654 20.2277C107.417 19.6363 107.299 18.9266 107.299 18.1577C107.299 17.2114 107.476 16.3242 107.891 15.4962C108.305 14.6681 108.838 13.9584 109.49 13.3078C110.2 12.7164 110.97 12.184 111.977 11.8292C112.924 11.4743 113.99 11.2969 115.234 11.2969C115.885 11.2969 116.536 11.356 117.188 11.4743C117.839 11.5926 118.491 11.7109 119.142 11.8292C119.734 12.0066 120.326 12.2432 120.859 12.4798C121.392 12.7164 121.925 12.9529 122.34 13.1895L121.155 15.3187C120.682 15.0821 120.267 14.8456 119.793 14.609C119.32 14.3724 118.905 14.195 118.431 14.0175C117.958 13.8992 117.425 13.781 116.951 13.7218C116.477 13.6627 115.944 13.6035 115.352 13.6035C114.582 13.6035 113.872 13.7218 113.28 13.8992C112.687 14.0767 112.154 14.3724 111.74 14.6681C111.266 15.023 110.97 15.437 110.733 15.9693C110.496 16.4425 110.378 17.0339 110.378 17.6254C110.378 18.2168 110.496 18.69 110.674 19.104C110.852 19.518 111.148 19.8729 111.503 20.1686C111.799 20.4643 112.214 20.7601 112.687 20.9375C113.161 21.1741 113.635 21.2924 114.168 21.4698L117.425 22.4161C118.372 22.7118 119.201 23.0076 119.912 23.4216C120.622 23.8356 121.214 24.3087 121.747 24.7819C122.221 25.3142 122.576 25.9057 122.813 26.5562C122.991 27.2068 123.109 27.9166 123.109 28.7446Z" fill="white"/>
<path d="M141.289 28.7446C141.289 29.6909 141.111 30.6372 140.696 31.5244C140.282 32.4116 139.69 33.1805 138.92 33.8902C138.15 34.5999 137.144 35.1323 136.018 35.5463C134.893 35.9603 133.531 36.1969 132.051 36.1969C131.4 36.1969 130.748 36.1377 130.038 36.0786C129.327 35.9603 128.676 35.842 128.024 35.6646C127.373 35.5463 126.722 35.3097 126.129 35.1323C125.537 34.8957 125.004 34.6591 124.59 34.4225L125.596 32.1159C126.129 32.4116 126.603 32.6482 127.136 32.8847C127.669 33.1213 128.202 33.2988 128.735 33.4762C129.268 33.6536 129.801 33.7719 130.393 33.8311C130.985 33.8902 131.577 33.9494 132.229 33.9494C133.117 33.9494 133.946 33.8311 134.716 33.6536C135.426 33.4762 136.078 33.1213 136.551 32.7665C137.084 32.4116 137.44 31.9384 137.736 31.347C138.032 30.7555 138.15 30.1641 138.15 29.3952C138.15 28.8629 138.032 28.3897 137.854 27.9166C137.676 27.4434 137.38 27.0294 137.025 26.6154C136.67 26.2605 136.196 25.9057 135.663 25.6099C135.13 25.3142 134.479 25.0776 133.768 24.841L131.104 24.0722C130.156 23.8356 129.327 23.4807 128.616 23.1258C127.906 22.771 127.314 22.2978 126.84 21.8247C126.366 21.3515 126.011 20.8192 125.774 20.2277C125.537 19.6363 125.419 18.9266 125.419 18.1577C125.419 17.2114 125.596 16.3242 126.011 15.4962C126.366 14.6681 126.958 13.9584 127.61 13.3078C128.261 12.7164 129.09 12.184 130.097 11.8292C131.044 11.4743 132.11 11.2969 133.354 11.2969C134.005 11.2969 134.656 11.356 135.308 11.4743C135.959 11.5926 136.611 11.7109 137.262 11.8292C137.854 12.0066 138.446 12.2432 138.979 12.4798C139.512 12.7164 139.986 12.9529 140.46 13.1895L139.275 15.3187C138.802 15.0821 138.387 14.8456 137.913 14.609C137.44 14.3724 137.025 14.195 136.551 14.0175C136.078 13.8992 135.545 13.781 135.071 13.7218C134.597 13.6627 134.064 13.6035 133.472 13.6035C132.702 13.6035 131.992 13.7218 131.4 13.8992C130.807 14.0767 130.274 14.3724 129.86 14.6681C129.386 15.023 129.09 15.437 128.853 15.9693C128.616 16.4425 128.498 17.0339 128.498 17.6254C128.498 18.2168 128.616 18.69 128.794 19.104C128.972 19.518 129.268 19.8729 129.623 20.1686C129.919 20.4643 130.334 20.7601 130.807 20.9375C131.281 21.1741 131.755 21.2924 132.288 21.4698L135.545 22.4161C136.492 22.7118 137.321 23.0076 138.032 23.4216C138.742 23.8356 139.334 24.3087 139.867 24.7819C140.341 25.3142 140.696 25.9057 140.933 26.5562C141.17 27.2068 141.289 27.9166 141.289 28.7446Z" fill="white"/>
<path d="M152.48 26.0831V32.5299C152.48 33.1214 152.48 33.6537 152.54 34.1268C152.54 34.6 152.599 35.1914 152.658 35.7237H149.579C149.638 35.1914 149.638 34.6591 149.697 34.1268C149.697 33.6537 149.756 33.0622 149.756 32.5299V26.024L143.42 14.3725C143.243 14.0767 143.006 13.6036 142.71 13.0713C142.414 12.539 142.118 12.0658 141.94 11.7701H145.493C145.671 12.2432 145.848 12.7755 146.085 13.2487C146.322 13.781 146.559 14.2542 146.796 14.7273L149.164 19.3406C149.283 19.5772 149.46 19.8729 149.579 20.2278C149.756 20.5827 149.934 20.9375 150.112 21.2924C150.289 21.6473 150.467 22.0021 150.704 22.357C150.882 22.7119 151.118 23.0667 151.237 23.3625C151.414 23.0667 151.592 22.7119 151.77 22.4162C151.947 22.1204 152.125 21.7656 152.303 21.4698C152.421 21.1741 152.599 20.8784 152.776 20.5235C152.954 20.1687 153.132 19.8138 153.309 19.4589L155.56 14.8456C155.796 14.3133 156.033 13.781 156.329 13.2487C156.566 12.7164 156.803 12.1841 156.981 11.7109H160.356C160.119 12.0067 159.882 12.4207 159.586 12.953C159.29 13.4853 159.053 13.8993 158.935 14.1359L152.48 26.0831Z" fill="white"/>
<path d="M177.765 28.7446C177.765 29.6909 177.588 30.6372 177.173 31.5244C176.759 32.4116 176.167 33.1805 175.397 33.8902C174.627 34.5999 173.62 35.1323 172.495 35.5463C171.37 35.9603 170.008 36.1969 168.528 36.1969C167.876 36.1969 167.225 36.1377 166.514 36.0786C165.804 35.9603 165.093 35.842 164.501 35.6646C163.85 35.5463 163.198 35.3097 162.606 35.1323C162.014 34.8957 161.481 34.6591 161.067 34.4225L162.073 32.1159C162.606 32.4116 163.08 32.6482 163.613 32.8847C164.146 33.1213 164.679 33.2988 165.212 33.4762C165.745 33.6536 166.278 33.7719 166.87 33.8311C167.462 33.8902 168.054 33.9494 168.705 33.9494C169.594 33.9494 170.423 33.8311 171.192 33.6536C171.903 33.4762 172.554 33.1213 173.028 32.7665C173.561 32.4116 173.916 31.9384 174.212 31.347C174.509 30.7555 174.627 30.1641 174.627 29.3952C174.627 28.8629 174.509 28.3897 174.331 27.9166C174.153 27.4434 173.857 27.0294 173.502 26.6154C173.147 26.2605 172.673 25.9057 172.14 25.6099C171.607 25.3142 170.956 25.0776 170.304 24.841L167.64 24.0722C166.692 23.8356 165.863 23.4807 165.152 23.1258C164.442 22.771 163.85 22.2978 163.376 21.8247C162.902 21.3515 162.547 20.8192 162.31 20.2277C162.073 19.6363 161.955 18.9266 161.955 18.1577C161.955 17.2114 162.132 16.3242 162.547 15.4962C162.961 14.6681 163.494 13.9584 164.146 13.3078C164.856 12.7164 165.626 12.184 166.633 11.8292C167.58 11.4743 168.705 11.2969 169.89 11.2969C170.541 11.2969 171.192 11.356 171.844 11.4743C172.495 11.5926 173.147 11.7109 173.798 11.8292C174.39 12.0066 174.982 12.2432 175.515 12.4798C176.048 12.7164 176.581 12.9529 176.996 13.1895L175.811 15.3187C175.338 15.0821 174.923 14.8456 174.449 14.609C173.976 14.3724 173.561 14.195 173.087 14.0175C172.614 13.8992 172.081 13.781 171.607 13.7218C171.074 13.6627 170.541 13.6035 170.008 13.6035C169.238 13.6035 168.528 13.7218 167.936 13.8992C167.343 14.0767 166.811 14.3724 166.396 14.6681C165.922 15.023 165.626 15.437 165.389 15.9693C165.152 16.4425 165.034 17.0339 165.034 17.6254C165.034 18.2168 165.152 18.69 165.33 19.104C165.508 19.518 165.804 19.8729 166.159 20.1686C166.455 20.4643 166.87 20.7601 167.343 20.9375C167.817 21.1741 168.291 21.2924 168.824 21.4698L172.081 22.4161C173.028 22.7118 173.857 23.0076 174.568 23.4216C175.278 23.8356 175.871 24.3087 176.403 24.7819C176.877 25.3142 177.232 25.9057 177.469 26.5562C177.647 27.2068 177.765 27.9166 177.765 28.7446Z" fill="white"/>
</g>
<defs>
<clipPath id="clip0_17308_3090">
<rect width="178" height="46" fill="white" transform="translate(0 0.708984)"/>
</clipPath>
</defs>
</svg>
