<svg width="191" height="47" viewBox="0 0 191 47" fill="none" xmlns="http://www.w3.org/2000/svg">
<path d="M0 23.7446C0 11.5043 3.9302 7.95813 11.3243 7.95813C13.0134 7.95813 14.7454 8.16728 16.4345 8.50479V9.85479C15.1689 9.68366 13.7319 9.56007 12.4187 9.56007C6.33304 9.56007 4.30609 12.3456 4.30609 23.7019C4.30609 35.1008 6.33304 37.8864 12.4187 37.8864C13.77 37.8864 15.1213 37.7581 16.4345 37.5489V38.9845C14.7454 39.322 13.0563 39.5311 11.3243 39.5311C3.9302 39.5311 0 36.0278 0 23.7446Z" fill="white"/>
<path d="M29.9569 27.4999L22.1822 8.16728H26.7452L33.3352 24.8855L39.968 8.16728H41.8284L34.1393 27.4144V39.3172H29.9569V27.4999Z" fill="white"/>
<path d="M48.6754 15.174V39.3172H46.9434V8.16728H49.5651L62.5786 31.8922V8.16728H64.3533V39.3172H61.9029L48.6754 15.174Z" fill="white"/>
<path d="M71.2811 23.7446C71.2811 12.3884 75.0829 7.87256 81.6729 7.87256C88.3057 7.87256 92.1074 12.3884 92.1074 23.7446C92.1074 35.1008 88.3057 39.6167 81.6729 39.6167C75.0829 39.6167 71.2811 35.1008 71.2811 23.7446ZM87.8013 23.7019C87.8013 12.3029 86.0694 9.3937 81.6729 9.3937C77.2811 9.3937 75.5872 12.3884 75.5872 23.7019C75.5872 35.0581 77.2764 38.0956 81.6729 38.0956C86.0694 38.0956 87.8013 35.0581 87.8013 23.7019Z" fill="white"/>
<path d="M117.126 29.9052V8.16728H121.351V30.0336C121.351 35.6475 122.788 37.5489 127.179 37.5489C131.742 37.5489 133.346 35.6903 133.346 30.0336V8.16728H135.164V29.948C135.164 37.1639 132.418 39.6167 126.209 39.6167C120.209 39.5311 117.126 36.9547 117.126 29.9052Z" fill="white"/>
<path d="M150.123 26.4019H146.193V39.3172H142.139V8.16728H150.294C155.914 8.16728 159.844 10.3634 159.844 17.1562C159.844 22.0952 157.688 24.8379 154.31 25.8932L159.93 39.3172H155.533L150.123 26.4019ZM150.252 24.7571C154.01 24.7571 155.619 23.1552 155.619 17.1182C155.619 11.2523 153.972 9.68842 150.085 9.68842H146.198V24.7571H150.252Z" fill="white"/>
<path d="M104.636 20.4837C101.6 13.8287 100.006 9.28436 102.009 4.07924C102.551 2.67695 103.289 1.55036 104.174 0.708984C102.247 2.0685 100.662 4.08875 99.6062 6.77925C96.994 13.4057 98.8401 19.0719 102.104 26.1975C105.744 34.0503 106.439 37.7771 104.531 42.6257C103.731 44.5841 102.728 45.9009 101.567 46.709C104.164 45.3542 106.187 42.9299 107.471 39.5882C109.808 33.5274 108.761 29.5249 104.636 20.4837Z" fill="white"/>
<path d="M166.772 8.16728H182.15V9.68842H170.911V22.561H180.799V24.0394H170.911V37.8008H182.15V39.322H166.772V8.16728Z" fill="white"/>
<path d="M191 10.8103C191 12.3694 189.749 13.6291 188.178 13.6291C186.604 13.6291 185.343 12.3694 185.343 10.8103C185.343 9.23683 186.608 7.9914 188.178 7.9914C189.749 7.98665 191 9.25109 191 10.8103ZM190.553 10.8103C190.553 9.47926 189.525 8.39545 188.178 8.39545C186.832 8.39545 185.79 9.47451 185.79 10.8103C185.79 12.1412 186.813 13.2251 188.178 13.2251C189.525 13.2203 190.553 12.1412 190.553 10.8103ZM188.545 11.0669L189.263 12.0034H188.797L188.112 11.0765H187.722V12.0034H187.331V9.56007H188.374C188.902 9.56007 189.197 9.84528 189.197 10.3254C189.197 10.7675 188.954 11.0194 188.545 11.0669ZM187.722 9.95937V10.7247H188.35C188.626 10.7247 188.797 10.5868 188.797 10.3349C188.797 10.0972 188.635 9.95937 188.35 9.95937H187.722Z" fill="white"/>
</svg>
