<svg width="242" height="47" viewBox="0 0 242 47" fill="none" xmlns="http://www.w3.org/2000/svg">
<g clip-path="url(#clip0_17308_3134)">
<mask id="mask0_17308_3134" style="mask-type:luminance" maskUnits="userSpaceOnUse" x="0" y="0" width="242" height="47">
<path d="M241.971 0.708984H0V46.7145H241.971V0.708984Z" fill="white"/>
</mask>
<g mask="url(#mask0_17308_3134)">
<path d="M74.6101 35.1538C74.1573 34.9491 74.0697 34.8073 74.0697 34.1565C74.0697 32.5558 74.1882 30.8029 74.2189 30.3359C74.2499 29.8687 74.3322 29.5801 74.5587 29.5801C74.7853 29.5801 74.8521 29.8425 74.8521 30.1049C74.8786 30.607 74.965 31.104 75.1095 31.5848C75.7425 33.7472 77.4257 34.5345 79.1963 34.5345C81.7698 34.5345 83.0361 32.75 83.0361 31.207C83.0361 29.7795 82.6089 28.4096 80.2309 26.5361L78.9184 25.4863C75.7632 22.9829 74.6771 20.9361 74.6771 18.5743C74.6771 15.3676 77.3124 13.0637 81.286 13.0637C82.572 13.0469 83.854 13.2129 85.0949 13.557C85.3523 13.6095 85.4913 13.7039 85.4913 13.9034C85.4913 14.2813 85.3832 15.1315 85.3832 17.404C85.3832 18.0496 85.2904 18.2805 85.064 18.2805C84.8376 18.2805 84.7707 18.102 84.7707 17.7556C84.7187 17.0467 84.4585 16.37 84.0244 15.8137C83.6615 15.3301 83.1866 14.9459 82.6422 14.6958C82.0977 14.4457 81.5007 14.3375 80.9052 14.381C78.7897 14.381 77.5029 15.6353 77.5029 17.3882C77.5029 18.7319 78.1617 19.75 80.5293 21.5869L81.3375 22.1957C84.7655 24.9143 86.0214 26.8615 86.0214 29.6378C86.0376 30.6463 85.7996 31.6421 85.33 32.5299C84.8605 33.4177 84.1751 34.1676 83.3397 34.7076C81.9659 35.5454 80.3843 35.9609 78.7845 35.9042C77.3538 35.9622 75.9277 35.7025 74.605 35.1433" fill="white"/>
<path d="M101.585 32.7292C98.7849 30.2205 98.0386 26.956 98.0386 24.1272C98.0313 22.6326 98.3245 21.1522 98.8999 19.7775C99.4753 18.4028 100.321 17.1629 101.384 16.1341C103.443 14.2132 106.156 13.0481 110.428 13.0481C111.805 13.0424 113.182 13.1389 114.545 13.3367C115.632 13.4837 116.553 13.7461 117.412 13.8353C117.721 13.8353 117.834 14.0033 117.834 14.1817C117.834 14.3602 117.747 14.7696 117.69 15.7877C117.634 16.8058 117.69 18.3488 117.603 18.9367C117.572 19.3775 117.526 19.6032 117.258 19.6032C116.99 19.6032 116.975 19.3775 116.975 18.9629C116.933 17.9617 116.538 17.0094 115.863 16.2811C114.916 15.2628 112.687 14.4704 110.052 14.4704C107.556 14.4704 105.934 15.1107 104.668 16.2811C102.609 18.2334 102.043 21.0044 102.043 23.8334C102.043 30.7769 107.216 34.2197 111.045 34.2197C113.619 34.2197 115.163 33.9259 116.285 32.5822C116.746 32.0247 117.077 31.368 117.253 30.6614C117.34 30.1996 117.402 30.0841 117.629 30.0841C117.855 30.0841 117.886 30.2835 117.886 30.5196C117.766 31.828 117.554 33.1258 117.253 34.4034C117.224 34.5971 117.142 34.7785 117.015 34.9256C116.888 35.0727 116.722 35.1793 116.537 35.2327C115.39 35.6997 113.218 35.9097 111.39 35.9097C107.473 35.9097 104.184 35.0332 101.58 32.724" fill="white"/>
<path d="M131.386 21.9118C131.386 17.477 131.386 16.6634 131.335 15.7241C131.283 14.7846 130.99 14.2388 130.352 14.0918C130.016 14.0045 129.669 13.9639 129.322 13.9711C129.034 13.9711 128.869 13.9134 128.869 13.6772C128.869 13.441 129.086 13.4463 129.549 13.4463C130.64 13.4463 132.436 13.5355 133.275 13.5355C133.981 13.5355 135.674 13.4463 136.76 13.4463C137.136 13.4463 137.357 13.4988 137.357 13.6772C137.357 13.8557 137.182 13.9711 136.899 13.9711C136.61 13.9735 136.323 14.0034 136.039 14.0603C135.267 14.2073 135.046 14.7007 135.01 15.7241C134.953 16.653 134.953 17.4717 134.953 21.9118V27.0447C134.953 29.8683 134.953 32.1722 135.067 33.4319C135.149 34.219 135.355 34.7439 136.204 34.8593C136.689 34.9265 137.177 34.9633 137.666 34.9696C137.98 34.9696 138.124 35.0641 138.124 35.2058C138.124 35.3474 137.898 35.4996 137.609 35.4996C135.72 35.4996 133.919 35.4104 133.142 35.4104C132.483 35.4104 130.681 35.4996 129.539 35.4996C129.168 35.4996 128.972 35.4104 128.972 35.2058C128.972 35.0011 129.086 34.9696 129.425 34.9696C129.771 34.9722 130.117 34.9352 130.455 34.8593C131.031 34.7386 131.201 34.2505 131.294 33.4004C131.428 32.1722 131.428 29.863 131.428 27.0394L131.386 21.9118Z" fill="white"/>
<path d="M155.471 15.0788L151.209 15.1942C149.546 15.2521 148.862 15.399 148.434 16.0393C148.219 16.3511 148.055 16.6968 147.951 17.0627C147.889 17.2883 147.806 17.4143 147.637 17.4143C147.467 17.4143 147.374 17.2726 147.374 16.9472C147.374 16.4802 147.916 13.8245 147.981 13.5883C148.064 13.2052 148.152 13.0635 148.327 13.0635C148.723 13.2197 149.134 13.3357 149.552 13.4099C150.386 13.4991 151.477 13.5568 152.414 13.5568H163.737C164.662 13.5622 165.584 13.4636 166.486 13.2629C166.687 13.2629 166.707 13.4361 166.707 13.8717C166.707 14.4858 166.624 16.4959 166.624 17.2568C166.593 17.5508 166.543 17.7187 166.367 17.7187C166.192 17.7187 166.079 17.577 166.054 17.1414L166.023 16.816C165.971 16.0602 165.199 15.2415 162.651 15.1891L159.048 15.0998V27.045C159.048 29.7217 159.048 32.0256 159.192 33.2851C159.274 34.1039 159.449 34.7442 160.304 34.8596C160.789 34.9271 161.277 34.9639 161.765 34.9699C162.074 34.9699 162.224 35.0644 162.224 35.2061C162.224 35.3477 161.992 35.4999 161.679 35.4999C159.785 35.4999 157.983 35.4107 157.185 35.4107C156.531 35.4107 154.72 35.4999 153.582 35.4999C153.211 35.4999 153 35.4107 153 35.2061C153 35.0014 153.124 34.9699 153.468 34.9699C153.815 34.9724 154.161 34.9355 154.498 34.8596C155.07 34.7389 155.245 34.0987 155.331 33.2589C155.477 32.0256 155.477 29.7217 155.477 27.045L155.471 15.0788Z" fill="white"/>
<path d="M175.84 24.4737C175.84 19.4827 179.067 13.043 187.679 13.043C194.808 13.043 199.239 17.2731 199.239 23.949C199.239 30.6248 194.664 35.9098 187.4 35.9098C179.19 35.9098 175.871 29.638 175.871 24.4737H175.84ZM195.24 25.0354C195.24 18.4908 191.549 14.4443 186.855 14.4443C183.565 14.4443 179.824 16.3075 179.824 23.571C179.824 29.638 183.113 34.4508 188.574 34.4508C190.581 34.4508 195.219 33.4642 195.219 25.0354" fill="white"/>
<path d="M214.284 31.5585C214.342 33.8309 214.712 34.592 215.283 34.7966C215.763 34.9505 216.263 35.0198 216.765 35.0014C217.084 35.0014 217.28 35.0643 217.28 35.2376C217.28 35.4107 217.023 35.5314 216.621 35.5314C214.763 35.5314 213.616 35.4422 213.074 35.4422C212.817 35.4422 211.474 35.5314 209.986 35.5314C209.606 35.5314 209.354 35.4999 209.354 35.2376C209.354 35.0643 209.523 35.0014 209.807 35.0014C210.241 35.0112 210.676 34.9635 211.098 34.8596C211.845 34.6288 211.953 33.7785 211.983 31.2436L212.241 13.9714C212.241 13.3889 212.323 12.9795 212.611 12.9795C212.9 12.9795 213.188 13.3574 213.641 13.8822C213.99 14.2653 218.335 19.0151 222.514 23.2452C224.46 25.2343 228.331 29.4329 228.809 29.8948H228.959L228.675 16.774C228.64 14.9949 228.387 14.4438 227.693 14.1499C227.201 14.008 226.689 13.9495 226.18 13.9767C225.835 13.9767 225.721 13.8874 225.721 13.7143C225.721 13.5411 226.036 13.4518 226.463 13.4518C227.955 13.4518 229.324 13.5411 229.921 13.5411C230.24 13.5411 231.331 13.4518 232.727 13.4518C233.102 13.4518 233.39 13.4781 233.39 13.7143C233.39 13.9504 233.215 13.9767 232.875 13.9767C232.587 13.9652 232.298 13.9952 232.017 14.0659C231.218 14.2968 230.987 14.9108 230.956 16.543L230.642 34.9542C230.642 35.5996 230.528 35.8568 230.271 35.8568C230.014 35.8568 229.618 35.5314 229.299 35.2112C227.502 33.4636 223.833 29.6429 220.857 26.6408C217.738 23.4918 214.563 19.8181 214.048 19.2932H213.96L214.284 31.5585Z" fill="white"/>
<path d="M30.4269 1.64355C14.2083 1.64355 1.01624 11.6153 1.01624 23.8964C1.01624 36.1774 14.2135 46.1753 30.4269 46.1753C46.6404 46.1753 59.8274 36.2036 59.8274 23.9173C59.8274 11.6311 46.6352 1.64355 30.4269 1.64355ZM6.08615 23.9226C6.10803 21.4781 6.82306 19.092 8.145 17.0526C13.9407 24.4002 29.8659 23.6497 29.8659 23.6497C29.8659 23.6497 17.8267 22.2693 17.7547 15.8139C17.7032 10.975 22.5518 7.76307 28.0489 7.02306C28.5636 6.94959 29.0783 6.89711 29.5468 6.84987C29.8402 6.84987 30.1335 6.84987 30.4269 6.84987C43.8454 6.83938 54.7729 14.4966 54.7729 23.9226C54.758 26.1708 54.15 28.3734 53.0125 30.2993C46.9492 23.3873 31.6108 24.1011 31.6108 24.1011C31.6108 24.1011 43.6551 25.4709 43.7219 31.921C43.7786 36.7704 38.9249 39.9719 33.4277 40.7224C32.4343 40.8536 31.4718 40.9481 30.5608 41.0006H30.4269C17.0135 41.0059 6.08615 33.3433 6.08615 23.9226Z" fill="white"/>
<path d="M238.865 10.8961C239.5 10.9168 240.114 11.1275 240.631 11.5021C241.149 11.8767 241.546 12.3985 241.774 13.0022C242.002 13.6059 242.051 14.2648 241.914 14.8965C241.777 15.5282 241.459 16.1045 241.003 16.5537C240.546 17.0029 239.97 17.3047 239.346 17.4217C238.722 17.5385 238.077 17.4653 237.494 17.211C236.911 16.9568 236.414 16.5328 236.064 15.9922C235.716 15.4514 235.533 14.8181 235.534 14.171C235.54 13.7339 235.629 13.302 235.799 12.9003C235.968 12.4986 236.213 12.1351 236.52 11.8306C236.828 11.5262 237.192 11.2869 237.59 11.1265C237.99 10.9661 238.416 10.8878 238.845 10.8961H238.865ZM238.83 11.5521C238.147 11.557 237.494 11.8382 237.014 12.3337C236.536 12.8293 236.269 13.4987 236.274 14.1947C236.278 14.8907 236.554 15.5562 237.041 16.0449C237.526 16.5335 238.182 16.8054 238.865 16.8005C239.197 16.8009 239.526 16.7323 239.832 16.599C240.137 16.4656 240.414 16.2703 240.642 16.0248C240.872 15.7793 241.049 15.4889 241.165 15.171C241.281 14.8533 241.332 14.5148 241.315 14.1763C241.328 13.8371 241.273 13.4989 241.154 13.1817C241.037 12.8644 240.856 12.5748 240.625 12.3299C240.395 12.0851 240.119 11.89 239.813 11.7564C239.507 11.6228 239.178 11.5533 238.845 11.5521H238.83ZM238.315 15.8663H237.568V12.6123C237.976 12.5295 238.392 12.4891 238.809 12.4916C239.196 12.4542 239.586 12.5443 239.921 12.7488C240.018 12.8349 240.098 12.9421 240.151 13.0627C240.205 13.1834 240.231 13.3145 240.23 13.4468C240.224 13.6315 240.158 13.8093 240.045 13.9526C239.93 14.0958 239.772 14.1966 239.596 14.2393V14.276C239.757 14.3406 239.897 14.4502 240 14.5922C240.102 14.7343 240.164 14.903 240.178 15.079C240.209 15.3574 240.288 15.6277 240.414 15.8767H239.611C239.484 15.6339 239.397 15.3715 239.354 15.0999C239.293 14.7431 239.097 14.5752 238.69 14.5752H238.34L238.315 15.8663ZM238.315 14.0294H238.67C239.076 14.0294 239.411 13.8876 239.411 13.5518C239.411 13.2159 239.195 13.0532 238.72 13.0532C238.585 13.0488 238.448 13.0612 238.315 13.0899V14.0294Z" fill="white"/>
</g>
</g>
<defs>
<clipPath id="clip0_17308_3134">
<rect width="242" height="46" fill="white" transform="translate(0 0.708984)"/>
</clipPath>
</defs>
</svg>
