<svg display="none" xmlns="http://www.w3.org/2000/svg">

    <symbol id='play-icon' viewBox="0 0 48 48">
        <g>
            <path d="M15.0015 38.202V9.79688L37.3065 23.9994L15.0015 38.202Z" />
        </g>
    </symbol>

    <symbol id="vk-icon" width="32" height="32" viewBox="0 0 32 32">
        <g>
            <path fill-rule="evenodd" clip-rule="evenodd"
                d="M27.45 8.948C27.616 8.402 27.45 8 26.655 8H24.03C23.362 8 23.054 8.347 22.887 8.73C22.887 8.73 21.552 11.926 19.661 14.002C19.049 14.604 18.771 14.795 18.437 14.795C18.27 14.795 18.019 14.604 18.019 14.057V8.948C18.019 8.292 17.835 8 17.279 8H13.151C12.734 8 12.483 8.304 12.483 8.593C12.483 9.214 13.429 9.358 13.526 11.106V14.904C13.526 15.737 13.373 15.888 13.039 15.888C12.149 15.888 9.984 12.677 8.699 9.003C8.45 8.288 8.198 8 7.527 8H4.9C4.15 8 4 8.347 4 8.73C4 9.412 4.89 12.8 8.145 17.281C10.315 20.341 13.37 22 16.153 22C17.822 22 18.028 21.632 18.028 20.997V18.684C18.028 17.947 18.186 17.8 18.715 17.8C19.105 17.8 19.772 17.992 21.33 19.467C23.11 21.216 23.403 22 24.405 22H27.03C27.78 22 28.156 21.632 27.94 20.904C27.702 20.18 26.852 19.129 25.725 17.882C25.113 17.172 24.195 16.407 23.916 16.024C23.527 15.533 23.638 15.314 23.916 14.877C23.916 14.877 27.116 10.451 27.449 8.948" />
        </g>

    </symbol>

    <symbol id="whatsapp-icon" viewBox="0 0 32 32">
        <path
            d="M16.0014 5.00012C22.0766 5.00012 27.0013 9.92482 27.0013 16.0001C27.0013 22.0754 22.0766 27.0001 16.0014 27.0001C14.0574 27.0035 12.1476 26.489 10.4684 25.5096L5.00576 27.0001L6.49296 21.5353C5.51281 19.8555 4.99795 17.9449 5.00136 16.0001C5.00136 9.92482 9.92606 5.00012 16.0014 5.00012ZM12.2526 10.8301L12.0326 10.8389C11.8903 10.8487 11.7513 10.8861 11.6234 10.9489C11.5041 11.0166 11.3952 11.101 11.3 11.1997C11.168 11.324 11.0932 11.4318 11.0129 11.5363C10.606 12.0653 10.3869 12.7148 10.3903 13.3821C10.3925 13.9211 10.5333 14.4458 10.7533 14.9364C11.2032 15.9286 11.9435 16.9791 12.9203 17.9526C13.1557 18.1869 13.3867 18.4223 13.6353 18.6412C14.849 19.7098 16.2954 20.4804 17.8593 20.8918L18.4841 20.9875C18.6876 20.9985 18.8911 20.9831 19.0956 20.9732C19.416 20.9563 19.7287 20.8696 20.0119 20.7191C20.1559 20.6447 20.2964 20.5639 20.4332 20.4771C20.4332 20.4771 20.4798 20.4456 20.5707 20.3781C20.7192 20.2681 20.8105 20.19 20.9337 20.0613C21.0261 19.966 21.1031 19.8552 21.1647 19.7291C21.2505 19.5498 21.3363 19.2077 21.3715 18.9228C21.3979 18.705 21.3902 18.5862 21.3869 18.5125C21.3825 18.3948 21.2846 18.2727 21.1779 18.221L20.5377 17.9339C20.5377 17.9339 19.5807 17.517 18.9955 17.2508C18.9343 17.2241 18.8687 17.2089 18.8019 17.2057C18.7267 17.1978 18.6506 17.2062 18.5789 17.2303C18.5071 17.2544 18.4414 17.2937 18.3862 17.3454C18.3806 17.3432 18.3069 17.4059 17.5117 18.3695C17.466 18.4309 17.4031 18.4772 17.331 18.5027C17.2589 18.5281 17.1809 18.5316 17.1069 18.5125C17.0352 18.4934 16.9649 18.4691 16.8968 18.4399C16.7604 18.3827 16.7131 18.3607 16.6196 18.3211C15.988 18.046 15.4034 17.6737 14.8871 17.2178C14.7485 17.0968 14.6198 16.9648 14.4878 16.8372C14.055 16.4227 13.6779 15.9539 13.3658 15.4424L13.3009 15.3379C13.2549 15.2673 13.2173 15.1916 13.1887 15.1124C13.1469 14.9507 13.2558 14.8209 13.2558 14.8209C13.2558 14.8209 13.5231 14.5283 13.6474 14.3699C13.7684 14.2159 13.8707 14.0663 13.9367 13.9596C14.0665 13.7506 14.1072 13.5361 14.039 13.37C13.731 12.6176 13.4127 11.8693 13.0842 11.1249C13.0193 10.9775 12.8268 10.8719 12.6519 10.851C12.5925 10.8437 12.5331 10.8378 12.4737 10.8334C12.326 10.8249 12.1779 10.8264 12.0304 10.8378L12.2526 10.8301Z" />
    </symbol>

    <symbol id="burger-icon" viewBox="0 0 32 32">
        <path
            d="M5.33325 23.0267V21.6934H26.6666V23.0267H5.33325ZM5.33325 16.6667V15.3334H26.6666V16.6667H5.33325ZM5.33325 10.3067V8.97339H26.6666V10.3067H5.33325Z" />
    </symbol>

    <symbol id="close-icon" viewBox="0 0 32 32">
        <path
            d="M9.20132 23.7774L8.22266 22.8081L15.0213 16.0001L8.22266 9.22677L9.20132 8.2561L16 15.0534L22.7653 8.25744L23.744 9.22677L16.9453 16.0001L23.744 22.8081L22.7653 23.7774L16 16.9828L9.20132 23.7774Z" />
    </symbol>

    <symbol id="arrow-left" viewBox="0 0 32 32">
        <g>
            <path
                d="M8.69726 16.6666L13.6773 21.6466C13.807 21.7764 13.875 21.9293 13.8813 22.1053C13.8866 22.2813 13.8186 22.4426 13.6773 22.5893C13.5297 22.7368 13.371 22.8115 13.2013 22.8133C13.0315 22.8151 12.8728 22.7431 12.7253 22.5973L6.88259 16.7533C6.66659 16.5382 6.55859 16.2871 6.55859 16C6.55859 15.7128 6.66659 15.4613 6.88259 15.2453L12.7253 9.40262C12.8559 9.27284 13.0101 9.20484 13.1879 9.19862C13.3666 9.1924 13.5297 9.26306 13.6773 9.41062C13.8195 9.55729 13.8915 9.71417 13.8933 9.88129C13.8959 10.0493 13.8239 10.2066 13.6773 10.3533L8.69726 15.3333H25.2039C25.3941 15.3333 25.5533 15.3968 25.6813 15.524C25.8093 15.6511 25.8728 15.8097 25.8719 16C25.871 16.1902 25.8075 16.3488 25.6813 16.476C25.555 16.6031 25.3964 16.6666 25.2053 16.6666H8.69726Z" />
        </g>
    </symbol>

    <symbol id="arrow-right" viewBox="0 0 32 32">
        <g>
            <path
                d="M22.7653 16.6666H7.33464C7.14531 16.6666 6.98664 16.603 6.85864 16.4759C6.73064 16.3488 6.66709 16.1901 6.66798 15.9999C6.66887 15.8097 6.73242 15.651 6.85864 15.5239C6.98487 15.3968 7.14353 15.3332 7.33464 15.3332H22.7653L17.7853 10.3546C17.6555 10.2239 17.588 10.0706 17.5826 9.89456C17.5773 9.71856 17.6449 9.55722 17.7853 9.41056C17.9329 9.263 18.0915 9.18833 18.2613 9.18656C18.4311 9.18478 18.5898 9.25678 18.7373 9.40256L24.5813 15.2466C24.6969 15.3621 24.7782 15.4808 24.8253 15.6026C24.8724 15.7243 24.896 15.8568 24.896 15.9999C24.896 16.143 24.8724 16.2754 24.8253 16.3972C24.7782 16.519 24.6969 16.6381 24.5813 16.7546L18.7373 22.5972C18.6075 22.727 18.4533 22.795 18.2746 22.8012C18.096 22.8074 17.9329 22.7368 17.7853 22.5892C17.6431 22.4426 17.5711 22.2852 17.5693 22.1172C17.5675 21.9492 17.6395 21.7919 17.7853 21.6452L22.7653 16.6666Z"/>
        </g>
    </symbol>

</svg>